<?xml version="1.0" encoding="UTF-8" standalone="no"?>
<!-- Created with Inkscape (http://www.inkscape.org/) -->

<svg
   xmlns:dc="http://purl.org/dc/elements/1.1/"
   xmlns:cc="http://creativecommons.org/ns#"
   xmlns:rdf="http://www.w3.org/1999/02/22-rdf-syntax-ns#"
   xmlns:svg="http://www.w3.org/2000/svg"
   xmlns="http://www.w3.org/2000/svg"
   xmlns:xlink="http://www.w3.org/1999/xlink"
   xmlns:sodipodi="http://sodipodi.sourceforge.net/DTD/sodipodi-0.dtd"
   xmlns:inkscape="http://www.inkscape.org/namespaces/inkscape"
   width="1052.3622"
   height="744.09448"
   id="svg2"
   version="1.1"
   inkscape:version="0.48.0 r9654"
   sodipodi:docname="Borders.svg">
  <defs
     id="defs4">
    <inkscape:perspective
       sodipodi:type="inkscape:persp3d"
       inkscape:vp_x="0 : 372.04724 : 1"
       inkscape:vp_y="0 : 1000 : 0"
       inkscape:vp_z="1052.3622 : 372.04724 : 1"
       inkscape:persp3d-origin="526.18109 : 248.03149 : 1"
       id="perspective174" />
    <linearGradient
       id="linearGradient3814">
      <stop
         style="stop-color:#000000;stop-opacity:1;"
         offset="0"
         id="stop3816" />
      <stop
         style="stop-color:#ffffff;stop-opacity:1;"
         offset="1"
         id="stop3818" />
    </linearGradient>
    <linearGradient
       id="linearGradient5257">
      <stop
         style="stop-color:#000000;stop-opacity:1;"
         offset="0"
         id="stop5259" />
      <stop
         id="stop5265"
         offset="0.14666666"
         style="stop-color:#ffffff;stop-opacity:1;" />
      <stop
         style="stop-color:#ffffff;stop-opacity:1;"
         offset="1"
         id="stop5261" />
    </linearGradient>
    <clipPath
       clipPathUnits="userSpaceOnUse"
       id="clipPath3732">
      <rect
         style="fill:#000000;fill-opacity:1;stroke:none"
         id="rect3734"
         width="15"
         height="15"
         x="-15"
         y="-1010.6378" />
    </clipPath>
    <clipPath
       clipPathUnits="userSpaceOnUse"
       id="clipPath3659">
      <path
         id="path3661"
         d="m 18.960982,-997.0436 c 4.08051,-4.228 4.445274,-10.4809 4.372952,-16.0371 5.673547,-3.1321 5.672921,-10.3887 7.768592,-15.7887 0.589552,-4.5954 3.095063,-10.9818 8.833412,-9.8215 5.008232,0.4461 10.003202,2.7752 15.048425,1.2384 6.486745,-0.6035 13.307423,0.5037 19.435216,-2.2739 5.265896,-2.0498 10.517929,1.473 15.795474,0.069 5.269277,-1.9816 9.676308,1.0913 14.280847,2.9535 4.84834,1.0498 9.8552,0.1549 14.71099,-0.3299 3.52051,-0.7225 10.36903,-4.6194 11.20002,1.1766 -0.15712,4.962 -0.15504,12.4149 5.26492,14.4437 5.06636,0.085 6.92169,5.1745 2.92735,8.3584 -3.44067,5.7721 6.3957,11.3183 2.63341,16.1579 -5.49769,0.6383 -11.14131,-0.059 -16.71817,0.206 -35.184177,-0.1656 -70.369752,-0.2137 -105.553438,-0.3526 z"
         style="fill:none;stroke:#000000;stroke-width:1.20336378px;stroke-linecap:butt;stroke-linejoin:miter;stroke-opacity:1" />
    </clipPath>
    <linearGradient
       inkscape:collect="always"
       xlink:href="#linearGradient5257"
       id="linearGradient5271"
       gradientUnits="userSpaceOnUse"
       gradientTransform="translate(-54.111706,346.33151)"
       x1="134.64438"
       y1="-1342.9509"
       x2="134.64438"
       y2="-1386.7166" />
    <mask
       maskUnits="userSpaceOnUse"
       id="mask5267">
      <path
         style="fill:url(#linearGradient5271);fill-opacity:1;stroke:none"
         d="m 18.960663,-997.04405 c 4.08051,-4.22805 4.445274,-10.48085 4.372952,-16.03705 5.673547,-3.1322 5.672921,-10.3887 7.768592,-15.7888 0.589552,-4.5954 3.095063,-10.9818 8.833412,-9.8215 5.008232,0.4461 10.003205,2.7752 15.048424,1.2384 6.48674,-0.6035 13.30742,0.5037 19.43522,-2.2739 5.26589,-2.0498 10.51792,1.473 15.79547,0.069 5.26928,-1.9816 9.67631,1.0913 14.280847,2.9535 4.84834,1.0498 9.8552,0.1549 14.71099,-0.3299 3.52051,-0.7225 10.36903,-4.6194 11.20002,1.1766 -0.15712,4.962 -0.15504,12.415 5.26492,14.4438 5.06636,0.085 6.92169,5.1745 2.92735,8.3584 -3.44067,5.7721 6.3957,11.3183 2.63341,16.15785 -5.49769,0.6383 -11.14131,-0.059 -16.71817,0.206 -35.184177,-0.1656 -70.369757,-0.2137 -105.553437,-0.3526 z"
         id="path5269" />
    </mask>
    <filter
       inkscape:collect="always"
       id="filter5279">
      <feGaussianBlur
         inkscape:collect="always"
         stdDeviation="1.041446"
         id="feGaussianBlur5281" />
    </filter>
    <linearGradient
       id="linearGradient5257-4">
      <stop
         style="stop-color:#000000;stop-opacity:1;"
         offset="0"
         id="stop5259-8" />
      <stop
         id="stop5265-8"
         offset="0.14666666"
         style="stop-color:#ffffff;stop-opacity:1;" />
      <stop
         style="stop-color:#ffffff;stop-opacity:1;"
         offset="1"
         id="stop5261-2" />
    </linearGradient>
    <linearGradient
       inkscape:collect="always"
       xlink:href="#linearGradient5257-4"
       id="linearGradient3872"
       gradientUnits="userSpaceOnUse"
       gradientTransform="translate(-29.11439,366.96262)"
       x1="257.42007"
       y1="-1364.4884"
       x2="257.42007"
       y2="-1407.9408" />
    <mask
       maskUnits="userSpaceOnUse"
       id="mask3868">
      <path
         id="path3870"
         d="m 309.17273,-997.67809 c -53.93847,-0.03 -107.87695,-0.06 -161.81542,-0.09 1.56107,-6.10301 5.72868,-10.78511 9.12937,-15.67691 2.0569,-6.1433 -0.58058,-13.0617 3.69639,-18.5409 2.39161,-4.4419 6.26635,-9.9162 12.05795,-8.8598 10.17097,0.01 20.36104,1.3945 30.1093,4.166 7.58395,0.1366 15.21113,-0.9425 22.75925,0.1988 5.59302,5.3744 13.18939,0.2699 18.99379,-1.9634 6.54926,-1.5195 13.14249,1.3028 19.76929,0.3508 7.72311,-0.03 14.82806,3.5928 22.43367,0.2183 8.15188,-2.0532 11.73324,6.7457 14.56096,12.6104 4.06645,8.5298 5.3409,17.965 8.05875,26.90801 l 0.2467,0.6783 0,4e-4 0,0 z"
         style="fill:url(#linearGradient3872);fill-opacity:1;stroke:none" />
    </mask>
    <clipPath
       clipPathUnits="userSpaceOnUse"
       id="clipPath3874">
      <path
         style="fill:#000000;fill-opacity:1;stroke:none"
         d="m 309.17273,-997.67809 c -53.93847,-0.03 -107.87695,-0.06 -161.81542,-0.09 1.56107,-6.10301 5.72868,-10.78511 9.12937,-15.67691 2.0569,-6.1433 -0.58058,-13.0617 3.69639,-18.5409 2.39161,-4.4419 6.26635,-9.9162 12.05795,-8.8598 10.17097,0.01 20.36104,1.3945 30.1093,4.166 7.58395,0.1366 15.21113,-0.9425 22.75925,0.1988 5.59302,5.3744 13.18939,0.2699 18.99379,-1.9634 6.54926,-1.5195 13.14249,1.3028 19.76929,0.3508 7.72311,-0.03 14.82806,3.5928 22.43367,0.2183 8.15188,-2.0532 11.73324,6.7457 14.56096,12.6104 4.06645,8.5298 5.3409,17.965 8.05875,26.90801 l 0.2467,0.6783 0,4e-4 0,0 z"
         id="path3876" />
    </clipPath>
    <filter
       inkscape:collect="always"
       id="filter3898">
      <feGaussianBlur
         inkscape:collect="always"
         stdDeviation="1.1794141"
         id="feGaussianBlur3900" />
    </filter>
    <linearGradient
       inkscape:collect="always"
       xlink:href="#linearGradient5257"
       id="linearGradient4096"
       gradientUnits="userSpaceOnUse"
       gradientTransform="matrix(0.69154248,0,0,1,264.42801,346.33151)"
       x1="134.64438"
       y1="-1342.9509"
       x2="134.64438"
       y2="-1386.7166" />
    <mask
       maskUnits="userSpaceOnUse"
       id="mask4092">
      <path
         style="fill:url(#linearGradient4096);fill-opacity:1;stroke:none"
         d="m 314.96066,-996.63249 c 0,0 6.5372,-15.63521 8.53506,-23.61781 -0.0718,-3.7092 -0.53407,-7.9259 2.22055,-10.8818 1.72706,-3.0529 6.84701,-0.6345 8.58202,-4.3247 1.30082,-2.0521 4.07707,1.7959 6.52899,0.7498 3.78193,-0.029 6.75875,-2.6622 10.38182,-3.3116 3.70918,-0.8807 5.62475,3.3418 11.48347,0.4196 4.8758,0.9885 9.3534,2.7382 14.53121,1.0309 3.78069,-2.2522 8.91508,-0.5615 10.31373,3.6276 2.65176,3.0467 5.45572,6.3641 5.69029,10.6045 0.52789,5.6245 3.05267,10.7798 4.51475,16.1892 0.76583,2.9655 1.38498,9.51461 1.38498,9.51461 -28.05335,-0.2397 -84.16687,-3e-4 -84.16687,-3e-4 z"
         id="path4094"
         sodipodi:nodetypes="ccccccccccccc" />
    </mask>
    <clipPath
       clipPathUnits="userSpaceOnUse"
       id="clipPath4098">
      <path
         sodipodi:nodetypes="ccccccccccccc"
         id="path4100"
         d="m 314.96066,-996.63249 c 0,0 6.5372,-15.63521 8.53506,-23.61781 -0.0718,-3.7092 -0.53407,-7.9259 2.22055,-10.8818 1.72706,-3.0529 6.84701,-0.6345 8.58202,-4.3247 1.30082,-2.0521 4.07707,1.7959 6.52899,0.7498 3.78193,-0.029 6.75875,-2.6622 10.38182,-3.3116 3.70918,-0.8807 5.62475,3.3418 11.48347,0.4196 4.8758,0.9885 9.3534,2.7382 14.53121,1.0309 3.78069,-2.2522 8.91508,-0.5615 10.31373,3.6276 2.65176,3.0467 5.45572,6.3641 5.69029,10.6045 0.52789,5.6245 3.05267,10.7798 4.51475,16.1892 0.76583,2.9655 1.38498,9.51461 1.38498,9.51461 -28.05335,-0.2397 -84.16687,-3e-4 -84.16687,-3e-4 z"
         style="fill:none;stroke:#000000;stroke-width:1.20000005;stroke-miterlimit:4;stroke-opacity:1;stroke-dasharray:none" />
    </clipPath>
    <filter
       inkscape:collect="always"
       id="filter4130">
      <feGaussianBlur
         inkscape:collect="always"
         stdDeviation="1.0054135"
         id="feGaussianBlur4132" />
    </filter>
    <linearGradient
       inkscape:collect="always"
       xlink:href="#linearGradient5257"
       id="linearGradient4222"
       gradientUnits="userSpaceOnUse"
       gradientTransform="translate(329.88829,346.33151)"
       x1="134.64438"
       y1="-1342.9509"
       x2="134.64438"
       y2="-1386.7166" />
    <mask
       maskUnits="userSpaceOnUse"
       id="mask4218">
      <path
         style="fill:url(#linearGradient4222);fill-opacity:1;stroke:none"
         d="m 407.33362,-1013.0811 c 2.10025,-5.3652 0.19053,-14.5941 6.32559,-16.3486 5.66066,-1.6189 9.3529,-10.8294 14.84044,-6.9672 4.45932,3.1385 8.62009,0.9507 12.72347,-1.2233 5.27582,-2.7951 11.77379,3.1317 17.39136,0.2979 4.3652,-2.2021 8.68006,-2.3403 13.04939,0 3.73104,1.9984 8.54501,-1.5929 12.42644,-1.1655 5.14309,0.5663 10.58995,2.1823 15.90956,2.9699 5.22693,0.7738 11.16212,-5.1766 15.33632,-0.3587 3.88239,4.4811 4.5288,10.5997 4.64834,16.3344 0.11519,5.526 5.00681,9.8012 4.82702,15.5596 -0.14123,4.52351 2.0709,6.94541 2.0709,6.94541 -41.30735,-0.1435 -82.61421,0.1506 -123.92179,0 2.30897,-5.37561 3.59641,-10.28861 4.37296,-16.04391 z"
         id="path4220"
         sodipodi:nodetypes="cssssssssssccc" />
    </mask>
    <clipPath
       clipPathUnits="userSpaceOnUse"
       id="clipPath4224">
      <path
         sodipodi:nodetypes="cssssssssssccc"
         id="path4226"
         d="m 407.33362,-1013.0811 c 2.10025,-5.3652 0.19053,-14.5941 6.32559,-16.3486 5.66066,-1.6189 9.3529,-10.8294 14.84044,-6.9672 4.45932,3.1385 8.62009,0.9507 12.72347,-1.2233 5.27582,-2.7951 11.77379,3.1317 17.39136,0.2979 4.3652,-2.2021 8.68006,-2.3403 13.04939,0 3.73104,1.9984 8.54501,-1.5929 12.42644,-1.1655 5.14309,0.5663 10.58995,2.1823 15.90956,2.9699 5.22693,0.7738 11.16212,-5.1766 15.33632,-0.3587 3.88239,4.4811 4.5288,10.5997 4.64834,16.3344 0.11519,5.526 5.00681,9.8012 4.82702,15.5596 -0.14123,4.52351 2.0709,6.94541 2.0709,6.94541 -41.30735,-0.1435 -82.61421,0.1506 -123.92179,0 2.30897,-5.37561 3.59641,-10.28861 4.37296,-16.04391 z"
         style="fill:none;stroke:#000000;stroke-width:1.20000005;stroke-miterlimit:4;stroke-opacity:1;stroke-dasharray:none" />
    </clipPath>
    <filter
       inkscape:collect="always"
       id="filter4228">
      <feGaussianBlur
         inkscape:collect="always"
         stdDeviation="1.0369418"
         id="feGaussianBlur4230" />
    </filter>
    <linearGradient
       inkscape:collect="always"
       xlink:href="#linearGradient5257"
       id="linearGradient4288"
       gradientUnits="userSpaceOnUse"
       gradientTransform="matrix(0.82013698,0,0,1,473.03131,346.33151)"
       x1="134.64438"
       y1="-1342.9509"
       x2="134.64438"
       y2="-1386.7166" />
    <mask
       maskUnits="userSpaceOnUse"
       id="mask4284">
      <path
         style="fill:url(#linearGradient4288);fill-opacity:1;stroke:none"
         d="m 536.54709,-1013.0811 c 0,-5.0814 1.20564,-8.1501 1.19105,-11.9266 -0.0192,-4.9819 5.54428,-8.1807 9.35308,-11.0217 4.25297,-3.1723 9.384,2.776 13.98176,0.1756 4.32195,-2.4445 9.34505,-4.2881 14.35985,-2.1394 4.74769,2.0342 9.20621,-1.6755 14.21408,0.6449 4.4221,2.049 7.97922,-3.4119 13.04472,-1.0168 4.29515,2.0308 9.36339,0.6136 14.0224,1.5625 3.71997,0.7577 7.98014,-1.153 10.26813,3.527 1.7187,3.5156 -1.34538,8.0057 1.75791,10.19 2.04429,1.4389 5.71049,1.8468 3.79595,5.2086 -1.93976,3.406 -1.66758,6.6266 0.18325,10.1128 1.51728,2.858 0.97066,10.48531 0.97066,10.48531 0,0 -100.72927,0.247 -100.72927,0.247 0,0 3.58643,-10.35141 3.58643,-16.04891 l 0,-3e-4 z"
         id="path4286"
         sodipodi:nodetypes="csssssssssssccss" />
    </mask>
    <clipPath
       clipPathUnits="userSpaceOnUse"
       id="clipPath4290">
      <path
         sodipodi:nodetypes="csssssssssssccss"
         id="path4292"
         d="m 536.54709,-1013.0811 c 0,-5.0814 1.20564,-8.1501 1.19105,-11.9266 -0.0192,-4.9819 5.54428,-8.1807 9.35308,-11.0217 4.25297,-3.1723 9.384,2.776 13.98176,0.1756 4.32195,-2.4445 9.34505,-4.2881 14.35985,-2.1394 4.74769,2.0342 9.20621,-1.6755 14.21408,0.6449 4.4221,2.049 7.97922,-3.4119 13.04472,-1.0168 4.29515,2.0308 9.36339,0.6136 14.0224,1.5625 3.71997,0.7577 7.98014,-1.153 10.26813,3.527 1.7187,3.5156 -1.34538,8.0057 1.75791,10.19 2.04429,1.4389 5.71049,1.8468 3.79595,5.2086 -1.93976,3.406 -1.66758,6.6266 0.18325,10.1128 1.51728,2.858 0.97066,10.48531 0.97066,10.48531 0,0 -100.72927,0.247 -100.72927,0.247 0,0 3.58643,-10.35141 3.58643,-16.04891 l 0,-3e-4 z"
         style="fill:none;stroke:#000000;stroke-width:1.20000005;stroke-miterlimit:4;stroke-opacity:1;stroke-dasharray:none" />
    </clipPath>
    <filter
       inkscape:collect="always"
       id="filter4294">
      <feGaussianBlur
         inkscape:collect="always"
         stdDeviation="0.89236452"
         id="feGaussianBlur4296" />
    </filter>
    <linearGradient
       inkscape:collect="always"
       xlink:href="#linearGradient5257"
       id="linearGradient4357"
       gradientUnits="userSpaceOnUse"
       gradientTransform="matrix(0.88022524,0,0,1,578.64051,346.33151)"
       x1="134.64438"
       y1="-1342.9509"
       x2="134.64438"
       y2="-1386.7166" />
    <mask
       maskUnits="userSpaceOnUse"
       id="mask4353">
      <path
         style="fill:url(#linearGradient4357);fill-opacity:1;stroke:none"
         d="m 644.82557,-1011.1217 c -0.32396,-6.9277 1.72755,-13.963 4.56211,-20.2968 2.24966,-5.0268 8.64009,0.7964 12.02622,-2.1781 4.00801,-3.5209 8.29887,-1.3164 12.79308,-0.7669 4.61635,0.5644 7.0401,-4.2685 11.77908,-3.8588 4.16765,0.3603 8.82775,2.5042 12.13868,1.7171 4.77396,-1.1348 8.0888,2.4451 12.29562,0.985 5.46332,-1.8962 10.14837,2.1171 15.41962,0.089 4.53314,-1.7441 8.28124,2.6801 13.12233,0.9291 5.11738,-1.851 4.14696,7.1948 6.60948,10.2459 1.73335,2.1477 -3.07297,4.4216 0.62154,6.8507 3.66182,2.4076 -0.29749,8.2902 2.61202,12.1975 2.04707,2.7491 1.01625,8.76231 1.01625,8.76231 -34.28574,-0.4127 -72.57313,-0.2759 -106.86094,-0.1865 0.13668,-5.95371 2.68255,-8.78801 1.86491,-14.48951 z"
         id="path4355"
         sodipodi:nodetypes="csssssssssssccc" />
    </mask>
    <clipPath
       clipPathUnits="userSpaceOnUse"
       id="clipPath4359">
      <path
         sodipodi:nodetypes="csssssssssssccc"
         id="path4361"
         d="m 644.82557,-1011.1217 c -0.32396,-6.9277 1.72755,-13.963 4.56211,-20.2968 2.24966,-5.0268 8.64009,0.7964 12.02622,-2.1781 4.00801,-3.5209 8.29887,-1.3164 12.79308,-0.7669 4.61635,0.5644 7.0401,-4.2685 11.77908,-3.8588 4.16765,0.3603 8.82775,2.5042 12.13868,1.7171 4.77396,-1.1348 8.0888,2.4451 12.29562,0.985 5.46332,-1.8962 10.14837,2.1171 15.41962,0.089 4.53314,-1.7441 8.28124,2.6801 13.12233,0.9291 5.11738,-1.851 4.14696,7.1948 6.60948,10.2459 1.73335,2.1477 -3.07297,4.4216 0.62154,6.8507 3.66182,2.4076 -0.29749,8.2902 2.61202,12.1975 2.04707,2.7491 1.01625,8.76231 1.01625,8.76231 -34.28574,-0.4127 -72.57313,-0.2759 -106.86094,-0.1865 0.13668,-5.95371 2.68255,-8.78801 1.86491,-14.48951 z"
         style="fill:none;stroke:#000000;stroke-width:1.20000005;stroke-miterlimit:4;stroke-opacity:1;stroke-dasharray:none" />
    </clipPath>
    <filter
       inkscape:collect="always"
       id="filter4363">
      <feGaussianBlur
         inkscape:collect="always"
         stdDeviation="0.93076103"
         id="feGaussianBlur4365" />
    </filter>
    <clipPath
       clipPathUnits="userSpaceOnUse"
       id="clipPath4523">
      <path
         style="fill:none;stroke:#000000;stroke-width:2.16379476;stroke-linecap:butt;stroke-linejoin:miter;stroke-miterlimit:4;stroke-opacity:1;stroke-dasharray:none"
         d="m 2150.3057,-1247.7624 c -28.3426,21.6639 10.442,87.2097 -20.8014,132.5169 -2.6355,42.0642 5.3495,84.0607 17.6159,124.14097 1.6984,35.35549 -32.6697,67.50875 -15.256,102.84758 15.7351,44.3512 3.3773,91.99155 8.5949,137.67534 -1.6082,33.77275 -9.376,67.66016 -3.8337,101.45871 -10.3954,36.25849 20.1637,76.75185 -4.8386,110.0328 -4.7155,41.68981 49.6238,31.01937 75.3475,27.45621 30.7438,0.79076 61.3994,-7.54981 89.0115,10.38761 37.1492,-6.51046 74.3189,-3.45756 110.9407,-4.96794 40.5584,-13.89292 17.3876,-54.48879 7.3219,-79.81048 4.7923,-28.83977 10.4958,-57.41588 5.4238,-86.78379 -1.553,-26.83144 -1.8494,-53.83165 1.1947,-80.57371 25.3669,-41.48229 -13.8723,-89.2321 5.5098,-131.97337 12.2,-45.95568 -19.1762,-94.9992 4.3911,-139.14763 13.9077,-40.4529 -28.0911,-79.2646 -8.9291,-119.2002 -8.3629,-34.4837 8.5179,-70.8569 -1.5153,-104.3207 -21.859,-26.9303 -50.3625,16.1476 -77.1466,-4.7777 -38.0241,-14.1872 -75.3601,2.1351 -114.6248,-5.5278 -28.886,-0.5052 -61.6561,-2.236 -78.4063,10.5672 z"
         id="path4525"
         sodipodi:nodetypes="cccccccccccccccccccs" />
    </clipPath>
    <filter
       inkscape:collect="always"
       id="filter4527">
      <feGaussianBlur
         inkscape:collect="always"
         stdDeviation="3.9917794"
         id="feGaussianBlur4529" />
    </filter>
    <clipPath
       clipPathUnits="userSpaceOnUse"
       id="clipPath3841">
      <path
         sodipodi:nodetypes="csssssssssssccc"
         id="path3843"
         d="m -126.75417,-1286.7627 c 1.56466,3.1159 -1.96741,7.6676 1.00482,10.2534 3.49576,3.0412 2.76336,8.158 5.17874,11.6347 2.82491,4.0662 9.83584,3.5717 12.83627,-0.5597 2.51308,-3.4604 7.97803,-2.3109 10.63288,0.748 2.67049,3.077 7.26327,1.752 10.80795,0.6908 3.66129,-1.0962 7.44645,1.192 11.315807,-0.6512 3.200438,-1.5245 5.903111,3.6635 9.21,0.5758 2.73131,-2.5503 8.44588,0.014 7.936536,-5.4985 -0.205083,-2.2194 0.0178,-4.6915 1.727442,-6.5079 2.727578,-2.898 0.587816,-7.1597 0.659643,-10.6335 0.08319,-4.0233 3.330145,-7.2106 3.755256,-11.3536 0.384551,-3.7478 -1.036944,-5.8103 -1.036944,-5.8103 0,0 -51.8815,-0.1355 -75.68376,-0.013 -1.30956,5.9426 -0.5581,11.5492 1.65536,17.125 z"
         style="fill:none;stroke:#000000;stroke-opacity:1" />
    </clipPath>
    <filter
       inkscape:collect="always"
       id="filter3851">
      <feGaussianBlur
         inkscape:collect="always"
         stdDeviation="0.7453217"
         id="feGaussianBlur3853" />
    </filter>
    <clipPath
       clipPathUnits="userSpaceOnUse"
       id="clipPath3885">
      <path
         sodipodi:nodetypes="cssssssssssssccz"
         id="path3887"
         d="m -309.23165,-1294.6071 c 0.78271,2.406 2.24313,2.1253 2.93683,7.5473 0.84859,6.6327 1.07948,16.4665 6.58529,21.4329 5.05745,4.5619 10.70283,-1.6271 15.76088,3.3971 4.69584,4.6645 8.58952,-3.7636 14.24805,-2.2062 4.94658,1.3615 10.00775,3.6014 15.44326,2.0577 6.76773,-1.922 14.34062,-3.1688 20.73266,-3.9427 4.62803,-0.5603 8.90246,5.3832 14.47518,1.484 5.34661,-3.741 12.36847,1.5433 18.94027,0.2029 6.34454,-1.2941 14.27884,3.3962 20.4774,-0.9682 4.50493,-3.1719 8.33413,0.3991 12.15567,2.613 4.84335,2.8058 4.02273,-8.3794 10.35203,-10.6311 5.80062,-2.0637 0.0573,-12.5401 2.45153,-18.2731 2.073,-4.9639 3.68628,-11.9915 3.68628,-11.9915 0,0 -159.49196,0 -159.49196,0 0,0 0.44357,6.8094 1.24663,9.2779 z"
         style="fill:none;stroke:#000000;stroke-opacity:1" />
    </clipPath>
    <filter
       inkscape:collect="always"
       id="filter3917">
      <feGaussianBlur
         inkscape:collect="always"
         stdDeviation="1.1647801"
         id="feGaussianBlur3919" />
    </filter>
    <clipPath
       clipPathUnits="userSpaceOnUse"
       id="clipPath3969">
      <path
         sodipodi:nodetypes="cssssssssssscc"
         id="path3971"
         d="m -453.53586,-1303.8876 c 1.63274,9.7022 -1.07219,8.9446 2.78899,18.9054 2.19561,5.664 -2.63811,14.8286 2.35398,15.7656 4.31729,0.8103 9.59849,3.0185 14.22876,5.3557 4.70485,2.3747 18.92373,-5.6541 25.13693,-3.3395 5.45612,2.0325 15.89343,2.0073 21.88156,3.5148 5.05325,1.2722 9.8113,-3.9256 15.11353,-1.6929 4.15679,1.7504 7.88563,-1.5284 12.06648,-1.6108 3.99016,-0.079 7.99856,2.3586 11.6597,1.6778 4.48448,-0.8339 8.47876,-1.8162 13.16423,-1.4867 4.60372,0.3238 0.0927,-7.5755 3.64225,-11.2038 2.8531,-2.9165 4.93802,-7.6938 2.64143,-11.7285 -2.62744,-4.616 4.29207,-7.6831 -1.22184,-14.4841 -40.47981,0.3589 -82.97203,0.2237 -123.456,0.327 z"
         style="fill:none;stroke:#000000;stroke-opacity:1" />
    </clipPath>
    <filter
       inkscape:collect="always"
       id="filter3983">
      <feGaussianBlur
         inkscape:collect="always"
         stdDeviation="0.95712966"
         id="feGaussianBlur3985" />
    </filter>
    <filter
       inkscape:collect="always"
       id="filter4031">
      <feGaussianBlur
         inkscape:collect="always"
         stdDeviation="1.1281332"
         id="feGaussianBlur4033" />
    </filter>
    <clipPath
       clipPathUnits="userSpaceOnUse"
       id="clipPath4049">
      <path
         sodipodi:nodetypes="ccccccccccccccc"
         id="path4051"
         d="m -967.25809,-1273.0803 c 0.008,5.1475 7.47428,6.6655 11.58936,7.8064 7.07578,-1.4886 14.37089,-3.5006 20.88887,0.8775 6.34076,1.6881 13.2565,1.0828 19.1316,-1.7618 7.32889,-0.5192 14.7911,2.5729 21.83079,-0.8243 8.03898,-0.5081 15.27978,6.7908 23.36884,3.567 7.16204,-1.3188 14.86366,-1.2073 21.29974,-5.0728 7.12729,1.1681 14.09296,4.3498 21.44639,3.3513 6.62665,2.4565 8.72564,-5.8762 13.66839,-6.8912 4.62739,-5.0239 -0.43336,-10.2038 1.96021,-15.882 2.47782,-3.6814 2.22608,-8.0745 0.53199,-15.8732 -52.61417,-0.3379 -107.22967,-0.1767 -159.8444,-0.1121 -2.89643,5.5358 2.89312,10.1954 1.46597,15.5291 -2.73644,5.4217 -0.30073,10.818 2.66225,15.2861 l 0,0 z"
         style="fill:none;stroke:#000000;stroke-opacity:1" />
    </clipPath>
    <filter
       inkscape:collect="always"
       id="filter4063">
      <feGaussianBlur
         inkscape:collect="always"
         stdDeviation="1.1688192"
         id="feGaussianBlur4065" />
    </filter>
    <clipPath
       clipPathUnits="userSpaceOnUse"
       id="clipPath3819">
      <path
         style="fill:none;stroke:#000000;stroke-opacity:1"
         d="m -611.23165,-1294.6071 c -3.03076,5.3474 1.74835,10.7103 5.90415,13.7037 8.01197,3.4016 -5.60434,12.836 1.9008,16.6191 4.98108,-0.2799 16.20177,-6.4669 17.92685,1.8603 5.54526,6.1303 10.78083,-3.8789 16.56347,-3.7335 5.55249,1.4867 11.01337,9.1423 16.94828,3.6964 4.41974,-5.5967 10.14302,1.3439 15.57149,-0.6358 4.73223,-1.8657 10.62107,-3.5546 15.22001,-0.4226 4.32956,0.2703 8.18864,-2.2404 12.03011,1.392 4.30572,3.4009 11.12309,4.1604 13.8217,-1.5894 5.41235,-5.3114 11.39554,2.226 17.35897,-0.711 5.30313,-0.8787 13.81435,-1.8481 12.76758,-8.7391 0.4613,-5.5369 5.10819,-8.9753 2.88849,-14.5915 1.54402,-6.5446 2.78066,-10.9932 1.22789,-16.051 -39.2914,-0.2076 -109.24081,0 -148.53305,-0.07 -2.91567,2.5433 2.56854,7.4051 -1.59674,9.2728 l 0,-4e-4 z"
         id="path3821"
         sodipodi:nodetypes="ccccccccccccccccc" />
    </clipPath>
    <clipPath
       clipPathUnits="userSpaceOnUse"
       id="clipPath3858">
      <path
         sodipodi:nodetypes="cssssssssssssscc"
         id="path3860"
         d="m -715.93388,-1303.8876 c -1.0599,7.2233 -0.094,14.6248 1.97547,21.6228 1.30157,4.4014 -1.28578,9.9591 1.87037,13.8357 1.78569,2.1933 3.29736,4.7483 6.06823,6.15 3.08649,1.5613 6.41934,1.3451 9.298,0.4467 3.73143,-1.1646 7.11922,1.9387 10.40556,-1.0856 3.22123,-2.9644 7.86693,-2.0251 11.4198,-0.5532 3.80598,1.5768 7.28502,-0.763 10.78469,0.8868 3.99059,1.8813 5.14857,-2.864 7.65816,-3.9927 2.95201,-1.3276 4.79457,4.7841 7.66785,4.9911 3.18935,0.2298 4.98395,-6.1464 8.80202,-3.7534 2.85626,1.7901 4.71638,-3.1103 5.01977,-5.6333 0.35878,-2.9836 -0.8807,-6.0611 0.79786,-8.8164 1.83544,-3.0128 4.39969,-6.5859 2.80966,-10.3299 -1.883,-4.4338 0.18614,-9.4596 -1.25816,-13.9966 -27.77331,-0.071 -55.54638,0.1041 -83.31928,0.228 z"
         style="fill:none;stroke:#000000;stroke-opacity:1" />
    </clipPath>
    <filter
       inkscape:collect="always"
       id="filter3868">
      <feGaussianBlur
         inkscape:collect="always"
         stdDeviation="0.80308766"
         id="feGaussianBlur3870" />
    </filter>
    <linearGradient
       inkscape:collect="always"
       xlink:href="#linearGradient3814"
       id="linearGradient3890"
       gradientUnits="userSpaceOnUse"
       gradientTransform="translate(0,10)"
       x1="3624"
       y1="-1037.3622"
       x2="3624"
       y2="-1047.2388" />
    <filter
       inkscape:collect="always"
       id="filter3968"
       x="-1.2504"
       width="3.5008"
       y="-0.0036103946"
       height="1.0072208">
      <feGaussianBlur
         inkscape:collect="always"
         stdDeviation="3.126"
         id="feGaussianBlur3970" />
    </filter>
    <filter
       inkscape:collect="always"
       id="filter3984"
       x="-0.0036104702"
       width="1.0072209"
       y="-1.2414"
       height="3.4828">
      <feGaussianBlur
         inkscape:collect="always"
         stdDeviation="3.1035"
         id="feGaussianBlur3986" />
    </filter>
    <linearGradient
       inkscape:collect="always"
       xlink:href="#linearGradient3814"
       id="linearGradient4006"
       gradientUnits="userSpaceOnUse"
       gradientTransform="translate(-2615,2058.0001)"
       x1="3624"
       y1="-1037.3622"
       x2="3624"
       y2="-1047.2388" />
    <clipPath
       clipPathUnits="userSpaceOnUse"
       id="clipPath3049">
      <path
         d="m 2032.5971,-1336.1534 c -14.2443,-1.3032 -29.478,4.8999 -44.4072,0.9063 -12.755,-5.2477 -24.2235,4.2836 -37.3836,0.4531 -19.432,-4.1405 -42.1486,0.3121 -62.0795,1.8125 -19.7395,-7.3027 -41.3988,1.9654 -62.7591,-3.1719 -14.3367,3.5429 -28.0362,-2.396 -39.6493,2.7188 -11.7655,4.2441 -22.0435,-2.4571 -33.7586,-2.9454 -14.2641,-6.5322 -27.1082,5.0448 -42.3487,2.0391 -26.7844,-3.0716 -53.1521,-2.2701 -79.9976,0.4532 -22.9455,6.7595 -46.2145,-8.7416 -67.5171,1.1328 -22.4596,-1.1766 -45.4818,-6.6868 -67.2905,-0.9063 -9.5963,-3.7619 -18.8767,0.1695 -31.4928,-0.4531 -17.4647,-4.9429 -34.1816,1.2878 -53.6965,0.2266 -14.3921,-6.5927 -27.8691,1.8912 -44.1806,-0.2266 -17.8174,-10.722 -39.536,8.0443 -60.0403,-0.6797 -14.9277,4.8077 -29.0873,-8.5414 -41.0087,0 -18.4657,2.2483 -39.6967,-1.2058 -58.0013,-2.2657 -18.2972,3.3241 -37.8841,4.7499 -58.6809,4.5314 -2.5198,-5.8614 -11.3719,-4.2104 -17.6723,-6.1173 -15.9683,9.5047 -36.8939,0.7235 -55.0558,1.8125 -11.6405,6.3273 -24.2865,1.1027 -36.9305,-0.2266 -15.5935,5.1135 -39.5654,8.3219 -54.60316,0.4532 -23.64062,1.7134 -48.58236,8.4105 -71.82184,-0.9063 -15.98236,1.5067 -30.45847,4.5592 -47.57913,2.7188 -15.58727,-1.4098 -27.41635,-1.2637 -42.59466,0.9063 -14.31107,-6.182 -30.69868,1.9173 -46.67287,0.9062 -12.57762,-7.1928 -30.19926,3.0567 -44.86033,-1.5859 -19.60292,-0.5042 -38.66137,2.9456 -56.8684,-2.2657 -11.8048,-8.2879 -16.97988,6.7872 -28.54748,3.8516 -15.73698,-9.7429 -34.20514,2.2694 -52.33705,-1.1328 -13.8843,-4.8024 -30.92462,3.2199 -42.59466,-2.0391 -19.55576,0.8485 -43.62731,3.1165 -64.34512,-0.6797 -8.07939,3.0738 -17.88368,6.6589 -27.18808,1.8125 -8.45381,-5.5431 -12.81598,0.4551 -23.10986,0.6797 -24.70831,-3.7495 -49.22452,2.8899 -74.08752,0.2266 -16.77171,-5.9613 -33.7982,2.2034 -53.24332,0 -12.25817,-5.2426 -22.323,0.4983 -34.21166,2.2657 -18.27502,-3.217 -37.33622,-6.8624 -55.509,-1.1329 -18.38856,-8.6525 -43.97738,3.4971 -64.11855,-2.2656 -12.04405,-3.6061 -29.43307,7.9764 -40.78212,-1.3594 -19.142252,5.6278 -42.203838,-2.3013 -61.8529,3.1719 -5.27297,-4.4889 -14.476016,0.016 -24.016137,-0.2266 -7.71703,-4.5657 -17.431421,0.1 -27.697853,-0.293 l 0,-29.9334 c 6.6355642,-1.0588 15.858168,3.8347 23.109863,-1.2664 13.488716,3.141 26.299319,-2.2891 38.516445,2.2657 16.260657,1.3423 29.085807,-6.4047 43.047842,-0.4532 14.30728,-0.8044 22.98497,-1.8533 36.0242,-0.9062 13.98925,-1.3896 29.59033,0.5974 42.82123,-1.8126 8.39215,2.3182 16.42669,4.9865 26.50837,1.8126 17.61838,0.7117 33.78058,-2.4942 50.07138,-0.4532 13.07182,1.0646 26.95288,1.4663 40.55555,-1.1328 13.16978,5.685 28.48421,-4.7925 40.10242,1.3594 25.25836,-2.753 51.2528,3.9315 76.57975,-0.2266 15.13018,6.23 33.88796,-2.3661 48.71198,-0.2265 15.1231,6.6608 33.27263,-4.1139 48.4854,0.4531 15.0591,1.3362 30.9662,-1.0838 46.44631,0.2266 10.17595,0.5711 17.57871,1.0512 28.54748,-1.3594 25.64787,-0.2524 50.59339,-0.3144 74.76721,2.7188 18.65405,4.4947 40.58657,-6.4342 57.77467,-1.8126 25.66073,2.7768 51.77477,-2.6486 78.18136,1.1329 24.3428,-2.3793 45.75587,-1.5348 69.99367,-0.2266 8.6035,-2.1785 17.95771,-4.7836 27.64121,-0.9063 20.8961,6.3058 46.54991,-2.6007 68.87647,2.4923 21.67377,-0.5747 41.64589,-4.5976 62.08039,-1.1329 11.4546,-5.6304 26.2327,1.7721 39.4227,-1.3594 24.1032,1.9115 48.273,-2.3551 72.0484,1.1329 18.7136,-5.1397 39.9583,3.2822 58.681,-1.8126 15.9646,4.5056 33.2395,-0.7807 49.8448,0.9063 13.5836,-7.9164 30.5616,6.0298 46.2197,-0.6797 26.1971,4.5904 52.7876,-2.8826 80.2049,0.4531 18.5883,-1.7123 38.0405,-0.6665 56.1886,4.5314 20.3654,-3.4131 43.5069,-7.3676 63.4389,-2.0391 18.4572,-0.442 34.5747,-5.2226 51.6573,-0.2266 22.5516,-1.8674 46.0256,-2.7593 67.9702,-1.586 15.3684,-5.7246 29.4829,1.4716 44.4072,1.586 13.6542,-1.5895 31.2915,-3.8367 44.1807,-1.586 14.2147,2.0407 28.7455,-5.8857 42.5946,-0.2265 16.9599,2.6713 33.6899,-3.1012 49.8448,0.9062 14.5033,-1.1306 31.8244,4.172 43.501,-2.9454 23.8964,0.4324 46.7299,4.3713 69.7983,0.6798 17.2955,3.5993 36.1268,0.6682 53.4543,0 23.3231,7.2853 50.0671,-1.9433 74.5406,2.7188 3.2524,-0.4933 7.833,-0.8553 11.1533,-1.0214 l 0.01,29.9907 c -5.325,1.9681 -10.6733,0.4788 -15.4119,-2.2344 z"
         style="fill:none;stroke:#000000;stroke-width:1px;stroke-linecap:butt;stroke-linejoin:miter;stroke-opacity:1"
         id="path3051"
         sodipodi:nodetypes="cccccccccccccccccccccccccccccccccccccccccccccccccccccccccccccccccccccccccccccccccccccc" />
    </clipPath>
    <filter
       inkscape:collect="always"
       id="filter3913">
      <feGaussianBlur
         inkscape:collect="always"
         stdDeviation="1.0415705"
         id="feGaussianBlur3915" />
    </filter>
    <inkscape:perspective
       id="perspective3055"
       inkscape:persp3d-origin="0.5 : 0.33333333 : 1"
       inkscape:vp_z="1 : 0.5 : 1"
       inkscape:vp_y="0 : 1000 : 0"
       inkscape:vp_x="0 : 0.5 : 1"
       sodipodi:type="inkscape:persp3d" />
    <linearGradient
       inkscape:collect="always"
       xlink:href="#linearGradient5257"
       id="linearGradient3846"
       gradientUnits="userSpaceOnUse"
       gradientTransform="matrix(1.3566784,0,0,1,820.93964,-20.6309)"
       x1="134.64438"
       y1="-1342.9509"
       x2="134.64438"
       y2="-1386.7166" />
    <linearGradient
       inkscape:collect="always"
       xlink:href="#linearGradient5257"
       id="linearGradient3851"
       gradientUnits="userSpaceOnUse"
       gradientTransform="matrix(1.3566784,0,0,1,820.93964,-20.6309)"
       x1="134.64438"
       y1="-1342.9509"
       x2="134.64438"
       y2="-1386.7166" />
    <linearGradient
       inkscape:collect="always"
       xlink:href="#linearGradient5257"
       id="linearGradient3854"
       gradientUnits="userSpaceOnUse"
       gradientTransform="matrix(1.3566784,0,0,1,820.93964,-20.6309)"
       x1="134.64438"
       y1="-1342.9509"
       x2="134.64438"
       y2="-1386.7166" />
    <linearGradient
       inkscape:collect="always"
       xlink:href="#linearGradient5257-4"
       id="linearGradient3905"
       gradientUnits="userSpaceOnUse"
       gradientTransform="translate(207.2034,43.48728)"
       x1="257.42007"
       y1="-1364.4884"
       x2="257.42007"
       y2="-1407.9408" />
    <linearGradient
       inkscape:collect="always"
       xlink:href="#linearGradient5257"
       id="linearGradient3909"
       gradientUnits="userSpaceOnUse"
       gradientTransform="matrix(1.3566784,0,0,1,820.93964,-19.646525)"
       x1="134.64438"
       y1="-1342.9509"
       x2="134.64438"
       y2="-1386.7166" />
    <clipPath
       clipPathUnits="userSpaceOnUse"
       id="clipPath3917">
      <path
         sodipodi:nodetypes="cccccccccccccc"
         id="path3919"
         d="m 645.83502,-1010.1382 c -1.39111,-6.8483 0.30323,-13.831 3.65288,-19.7897 4.62683,-6.3359 12.43369,2.6505 17.19484,-2.3221 4.81311,-7.5726 12.30488,3.0388 18.45109,-2.8629 6.95947,-3.3094 14.46173,2.3249 21.58934,-1.8527 7.27411,-3.1547 13.23032,7.4778 20.20474,2.9217 6.1552,-5.6451 14.6913,0.2345 21.7653,-2.2966 7.3855,-0.9723 13.8535,6.3852 21.2201,2.907 6.4832,-3.6043 13.4934,-1.4555 20.3239,-0.6598 6.8486,-0.7195 9.6237,5.4419 13.5201,9.857 0.9301,5.5303 3.0432,11.4966 2.0067,17.1992 0.8858,3.5045 0.5193,11.38921 0.5193,11.38921 0,0 -110.07891,-0.092 -163.32265,-0.01 -0.0365,-5.02131 4.24076,-9.36101 2.87436,-14.48451 z"
         style="fill:none;stroke:#000000;stroke-opacity:1" />
    </clipPath>
    <linearGradient
       inkscape:collect="always"
       xlink:href="#linearGradient5257"
       id="linearGradient3935"
       gradientUnits="userSpaceOnUse"
       gradientTransform="matrix(1.3566784,0,0,1,543.82495,347.31588)"
       x1="134.64438"
       y1="-1342.9509"
       x2="134.64438"
       y2="-1386.7166" />
    <mask
       maskUnits="userSpaceOnUse"
       id="mask3931">
      <path
         style="fill:url(#linearGradient3935);fill-opacity:1;stroke:none"
         d="m 645.83502,-1010.1382 c -1.39111,-6.8483 0.30323,-13.831 3.65288,-19.7897 4.62683,-6.3359 12.43369,2.6505 17.19484,-2.3221 4.81311,-7.5726 12.30488,3.0388 18.45109,-2.8629 6.95947,-3.3094 14.46173,2.3249 21.58934,-1.8527 7.27411,-3.1547 13.23032,7.4778 20.20474,2.9217 6.1552,-5.6451 14.6913,0.2345 21.7653,-2.2966 7.3855,-0.9723 13.8535,6.3852 21.2201,2.907 6.4832,-3.6043 13.4934,-1.4555 20.3239,-0.6598 6.8486,-0.7195 9.6237,5.4419 13.5201,9.857 0.9301,5.5303 3.0432,11.4966 2.0067,17.1992 0.8858,3.5045 0.5193,11.38921 0.5193,11.38921 0,0 -110.07891,-0.092 -163.32265,-0.01 -0.0365,-5.02131 4.24076,-9.36101 2.87436,-14.48451 z"
         id="path3933"
         sodipodi:nodetypes="cccccccccccccc" />
    </mask>
    <filter
       inkscape:collect="always"
       id="filter3997">
      <feGaussianBlur
         inkscape:collect="always"
         stdDeviation="0.92389939"
         id="feGaussianBlur3999" />
    </filter>
    <inkscape:perspective
       id="perspective3966"
       inkscape:persp3d-origin="0.5 : 0.33333333 : 1"
       inkscape:vp_z="1 : 0.5 : 1"
       inkscape:vp_y="0 : 1000 : 0"
       inkscape:vp_x="0 : 0.5 : 1"
       sodipodi:type="inkscape:persp3d" />
    <filter
       inkscape:collect="always"
       id="filter4106"
       x="-1.2516"
       width="3.5032"
       y="-0.34134545"
       height="1.6826909">
      <feGaussianBlur
         inkscape:collect="always"
         stdDeviation="3.129"
         id="feGaussianBlur4108" />
    </filter>
    <clipPath
       clipPathUnits="userSpaceOnUse"
       id="clipPath3890">
      <path
         sodipodi:nodetypes="csssssssssssccsc"
         id="path3892"
         d="m 782.42073,-1386.4425 c -0.37809,-6.9277 1.27743,-11.888 7.35065,-15.6532 4.56739,-2.8317 6.8755,4.8489 10.82742,1.8744 4.67771,-3.5209 10.52979,-3.5959 15.77494,-3.0464 5.38769,0.5644 8.21643,0.966 13.74724,1.3757 4.86402,0.3603 9.71178,-3.4902 13.82922,-1.4067 5.07349,2.5672 14.92816,1.8541 19.83789,0.394 6.37619,-1.8962 6.8362,-0.4182 12.93041,1.7775 6.64143,2.3929 9.74938,1.4137 15.39936,-0.3373 5.97244,-1.851 5.91272,6.4611 7.71386,10.2459 1.26312,2.6543 5.5004,3.2412 3.34265,7.695 -2.3117,4.7716 -2.12018,6.8549 0.4312,11.3532 1.79689,3.1681 1.18605,8.7623 1.18605,8.7623 -40.01452,-0.4127 -84.69933,-0.2759 -124.71627,-0.1865 0.0798,-2.9769 0.14482,-9.6485 2.6457,-12.3522 2.78764,-3.0137 0.008,-6.8428 -0.30032,-10.4957 z"
         style="fill:none;stroke:#000000;stroke-width:1.20000005;stroke-miterlimit:4;stroke-opacity:1;stroke-dasharray:none" />
    </clipPath>
    <linearGradient
       inkscape:collect="always"
       xlink:href="#linearGradient5257"
       id="linearGradient3898"
       gradientUnits="userSpaceOnUse"
       gradientTransform="matrix(1.0273016,0,0,1,705.00798,-20.6309)"
       x1="134.64438"
       y1="-1342.9509"
       x2="134.64438"
       y2="-1386.7166" />
    <mask
       maskUnits="userSpaceOnUse"
       id="mask3894">
      <path
         sodipodi:nodetypes="csssssssssssccsc"
         id="path3896"
         d="m 782.42073,-1386.4425 c -0.37809,-6.9277 1.27743,-11.888 7.35065,-15.6532 4.56739,-2.8317 6.8755,4.8489 10.82742,1.8744 4.67771,-3.5209 10.52979,-3.5959 15.77494,-3.0464 5.38769,0.5644 8.21643,0.966 13.74724,1.3757 4.86402,0.3603 9.71178,-3.4902 13.82922,-1.4067 5.07349,2.5672 14.92816,1.8541 19.83789,0.394 6.37619,-1.8962 6.8362,-0.4182 12.93041,1.7775 6.64143,2.3929 9.74938,1.4137 15.39936,-0.3373 5.97244,-1.851 5.91272,6.4611 7.71386,10.2459 1.26312,2.6543 5.5004,3.2412 3.34265,7.695 -2.3117,4.7716 -2.12018,6.8549 0.4312,11.3532 1.79689,3.1681 1.18605,8.7623 1.18605,8.7623 -40.01452,-0.4127 -84.69933,-0.2759 -124.71627,-0.1865 0.0798,-2.9769 0.14482,-9.6485 2.6457,-12.3522 2.78764,-3.0137 0.008,-6.8428 -0.30032,-10.4957 z"
         style="fill:url(#linearGradient3898);fill-opacity:1;stroke:none" />
    </mask>
    <filter
       inkscape:collect="always"
       id="filter3904">
      <feGaussianBlur
         inkscape:collect="always"
         stdDeviation="1.0333044"
         id="feGaussianBlur3906" />
    </filter>
    <inkscape:perspective
       id="perspective4064"
       inkscape:persp3d-origin="0.5 : 0.33333333 : 1"
       inkscape:vp_z="1 : 0.5 : 1"
       inkscape:vp_y="0 : 1000 : 0"
       inkscape:vp_x="0 : 0.5 : 1"
       sodipodi:type="inkscape:persp3d" />
    <inkscape:perspective
       id="perspective4064-7"
       inkscape:persp3d-origin="0.5 : 0.33333333 : 1"
       inkscape:vp_z="1 : 0.5 : 1"
       inkscape:vp_y="0 : 1000 : 0"
       inkscape:vp_x="0 : 0.5 : 1"
       sodipodi:type="inkscape:persp3d" />
    <inkscape:perspective
       id="perspective4194"
       inkscape:persp3d-origin="0.5 : 0.33333333 : 1"
       inkscape:vp_z="1 : 0.5 : 1"
       inkscape:vp_y="0 : 1000 : 0"
       inkscape:vp_x="0 : 0.5 : 1"
       sodipodi:type="inkscape:persp3d" />
    <inkscape:perspective
       id="perspective4244"
       inkscape:persp3d-origin="0.5 : 0.33333333 : 1"
       inkscape:vp_z="1 : 0.5 : 1"
       inkscape:vp_y="0 : 1000 : 0"
       inkscape:vp_x="0 : 0.5 : 1"
       sodipodi:type="inkscape:persp3d" />
    <clipPath
       clipPathUnits="userSpaceOnUse"
       id="clipPath3212">
      <rect
         y="-1010.6378"
         x="0"
         height="15"
         width="1024"
         id="rect3214"
         style="fill:#ff0000;fill-opacity:1;stroke:none" />
    </clipPath>
    <clipPath
       clipPathUnits="userSpaceOnUse"
       id="clipPath3217">
      <rect
         y="-995.63782"
         x="-15"
         height="2048"
         width="15"
         id="rect3219"
         style="fill:#ff0000;fill-opacity:1;stroke:none" />
    </clipPath>
    <linearGradient
       inkscape:collect="always"
       xlink:href="#linearGradient3814"
       id="linearGradient3223"
       gradientUnits="userSpaceOnUse"
       gradientTransform="translate(-4792,2555)"
       x1="3624"
       y1="-1037.3622"
       x2="3624"
       y2="-1047.2388" />
    <linearGradient
       inkscape:collect="always"
       xlink:href="#linearGradient3814"
       id="linearGradient3248"
       gradientUnits="userSpaceOnUse"
       gradientTransform="translate(-4792,2595)"
       x1="3624"
       y1="-1037.3622"
       x2="3624"
       y2="-1047.2388" />
    <linearGradient
       inkscape:collect="always"
       xlink:href="#linearGradient3814"
       id="linearGradient3260"
       gradientUnits="userSpaceOnUse"
       gradientTransform="translate(-4792,2595)"
       x1="3624"
       y1="-1037.3622"
       x2="3624"
       y2="-1047.2388" />
    <linearGradient
       inkscape:collect="always"
       xlink:href="#linearGradient3814"
       id="linearGradient3263"
       gradientUnits="userSpaceOnUse"
       gradientTransform="translate(-4792,2595)"
       x1="3624"
       y1="-1037.3622"
       x2="3624"
       y2="-1047.2388" />
    <linearGradient
       inkscape:collect="always"
       xlink:href="#linearGradient3814"
       id="linearGradient3273"
       gradientUnits="userSpaceOnUse"
       gradientTransform="translate(-4792,2595)"
       x1="3624"
       y1="-1037.3622"
       x2="3624"
       y2="-1047.2388" />
    <mask
       maskUnits="userSpaceOnUse"
       id="mask3269">
      <rect
         transform="scale(1,-1)"
         style="fill:url(#linearGradient3273);fill-opacity:1;stroke:none"
         id="rect3271"
         width="2048"
         height="25"
         x="-2192"
         y="1532.6378" />
    </mask>
    <clipPath
       clipPathUnits="userSpaceOnUse"
       id="clipPath3279">
      <rect
         transform="scale(1,-1)"
         style="fill:#ff0000;fill-opacity:1;stroke:none"
         id="rect3281"
         width="1024"
         height="25"
         x="-2192"
         y="1532.6378"
         mask="none" />
    </clipPath>
    <linearGradient
       inkscape:collect="always"
       xlink:href="#linearGradient3814"
       id="linearGradient3285"
       gradientUnits="userSpaceOnUse"
       gradientTransform="translate(-4807,2595)"
       x1="3624"
       y1="-1037.3622"
       x2="3624"
       y2="-1047.2388" />
    <linearGradient
       inkscape:collect="always"
       xlink:href="#linearGradient3814"
       id="linearGradient3292"
       gradientUnits="userSpaceOnUse"
       gradientTransform="translate(-4807,2595)"
       x1="3624"
       y1="-1037.3622"
       x2="3624"
       y2="-1047.2388" />
    <mask
       maskUnits="userSpaceOnUse"
       id="mask3288">
      <rect
         transform="scale(1,-1)"
         style="fill:url(#linearGradient3292);fill-opacity:1;stroke:none"
         id="rect3290"
         width="15"
         height="25"
         x="-2207"
         y="1532.6378" />
    </mask>
    <clipPath
       clipPathUnits="userSpaceOnUse"
       id="clipPath3294">
      <rect
         style="fill:#000000;fill-opacity:1;stroke:none"
         id="rect3296"
         width="15"
         height="25"
         x="-2207"
         y="-1557.6378" />
    </clipPath>
    <filter
       inkscape:collect="always"
       id="filter4066"
       x="-0.0036104702"
       width="1.0072209"
       y="-1.2414"
       height="3.4828">
      <feGaussianBlur
         inkscape:collect="always"
         stdDeviation="3.1035"
         id="feGaussianBlur4068" />
    </filter>
  </defs>
  <sodipodi:namedview
     id="base"
     pagecolor="#ffffff"
     bordercolor="#666666"
     borderopacity="1.0"
     inkscape:pageopacity="0.0"
     inkscape:pageshadow="2"
     inkscape:zoom="0.70710678"
     inkscape:cx="629.88811"
     inkscape:cy="1973.6661"
     inkscape:document-units="px"
     inkscape:current-layer="layer2"
     showgrid="false"
     inkscape:window-width="1920"
     inkscape:window-height="1005"
     inkscape:window-x="-9"
     inkscape:window-y="-9"
     inkscape:window-maximized="1"
     inkscape:object-paths="true"
     inkscape:object-nodes="false"
     inkscape:snap-nodes="false"
     inkscape:snap-bbox="false"
     showguides="true"
     inkscape:guide-bbox="true"
     inkscape:snap-intersection-paths="true"
     inkscape:snap-to-guides="true" />
  <metadata
     id="metadata7">
    <rdf:RDF>
      <cc:Work
         rdf:about="">
        <dc:format>image/svg+xml</dc:format>
        <dc:type
           rdf:resource="http://purl.org/dc/dcmitype/StillImage" />
        <dc:title></dc:title>
      </cc:Work>
    </rdf:RDF>
  </metadata>
  <g
     inkscape:groupmode="layer"
     id="layer3"
     inkscape:label="Export layer"
     style="display:inline"
     sodipodi:insensitive="true">
    <rect
       mask="none"
       y="1840.9055"
       x="-2192"
       height="25"
       width="1024"
       id="rect4258"
       style="fill:none;stroke:none;display:inline"
       transform="scale(1,-1)"
       inkscape:export-filename="C:\Users\ckr\Desktop\WikiSkins\Light\Footer.png"
       inkscape:export-xdpi="90"
       inkscape:export-ydpi="90" />
    <rect
       y="1840.9055"
       x="-2207"
       height="25"
       width="15"
       id="rect4228"
       style="fill:none;stroke:none"
       transform="scale(1,-1)"
       inkscape:export-filename="C:\Users\ckr\Desktop\WikiSkins\Light\Footer.png"
       inkscape:export-xdpi="90"
       inkscape:export-ydpi="90" />
    <path
       sodipodi:nodetypes="cccccccccccccccccccccccccccccccccccccccccccccccccccccccccccccccccccccccccccccccccccccc"
       id="path4197"
       style="fill:none;stroke:none"
       d="m -387.4029,-1757.9603 c -14.2443,-1.3032 -29.478,4.8999 -44.4072,0.9063 -12.755,-5.2477 -24.2235,4.2836 -37.3836,0.4531 -19.432,-4.1405 -42.1486,0.3121 -62.0795,1.8125 -19.7395,-7.3027 -41.3988,1.9654 -62.7591,-3.1719 -14.3367,3.5429 -28.0362,-2.396 -39.6493,2.7188 -11.7655,4.2441 -22.0435,-2.4571 -33.7586,-2.9454 -14.2641,-6.5322 -27.1082,5.0448 -42.3487,2.0391 -26.7844,-3.0716 -53.1521,-2.2701 -79.9976,0.4532 -22.9455,6.7595 -46.2145,-8.7416 -67.5171,1.1328 -22.4596,-1.1766 -45.4818,-6.6868 -67.2905,-0.9063 -9.5963,-3.7619 -18.8767,0.1695 -31.4928,-0.4531 -17.4647,-4.9429 -34.1816,1.2878 -53.6965,0.2266 -14.3921,-6.5927 -27.8691,1.8912 -44.1806,-0.2266 -17.8174,-10.722 -39.536,8.0443 -60.0403,-0.6797 -14.9277,4.8077 -29.0873,-8.5414 -41.0087,0 -18.4657,2.2483 -39.6967,-1.2058 -58.0013,-2.2657 -18.2972,3.3241 -37.8841,4.7499 -58.6809,4.5314 -2.5198,-5.8614 -11.3719,-4.2104 -17.6723,-6.1173 -15.9683,9.5047 -36.8939,0.7235 -55.0558,1.8125 -11.6405,6.3273 -24.2865,1.1027 -36.9305,-0.2266 -15.5935,5.1135 -39.5654,8.3219 -54.6032,0.4532 -23.6406,1.7134 -48.5823,8.4105 -71.8218,-0.9063 -15.9824,1.5067 -30.4585,4.5592 -47.5791,2.7188 -15.5873,-1.4098 -27.4164,-1.2637 -42.5947,0.9063 -14.3111,-6.182 -30.6987,1.9173 -46.6729,0.9062 -12.5776,-7.1928 -30.1992,3.0567 -44.8603,-1.5859 -19.6029,-0.5042 -38.6614,2.9456 -56.8684,-2.2657 -11.8048,-8.2879 -16.9799,6.7872 -28.5475,3.8516 -15.7369,-9.7429 -34.2051,2.2694 -52.337,-1.1328 -13.8843,-4.8024 -30.9246,3.2199 -42.5947,-2.0391 -19.5557,0.8485 -43.6273,3.1165 -64.3451,-0.6797 -8.0794,3.0738 -17.8837,6.6589 -27.1881,1.8125 -8.4538,-5.5431 -12.816,0.4551 -23.1098,0.6797 -24.7083,-3.7495 -49.2246,2.8899 -74.0876,0.2266 -16.7717,-5.9613 -33.7982,2.2034 -53.2433,0 -12.2581,-5.2426 -22.323,0.4983 -34.2116,2.2657 -18.2751,-3.217 -37.3363,-6.8624 -55.509,-1.1329 -18.3886,-8.6525 -43.9774,3.4971 -64.1186,-2.2656 -12.044,-3.6061 -29.4331,7.9764 -40.7821,-1.3594 -19.1423,5.6278 -42.2039,-2.3013 -61.8529,3.1719 -5.273,-4.4889 -14.476,0.016 -24.0162,-0.2266 -7.717,-4.5657 -17.4314,0.1 -27.6978,-0.293 l 0,-29.9334 c 6.6356,-1.0588 15.8582,3.8347 23.1099,-1.2664 13.4887,3.141 26.2993,-2.2891 38.5164,2.2657 16.2607,1.3423 29.0858,-6.4047 43.0478,-0.4532 14.3073,-0.8044 22.985,-1.8533 36.0242,-0.9062 13.9893,-1.3896 29.5904,0.5974 42.8213,-1.8126 8.3921,2.3182 16.4267,4.9865 26.5083,1.8126 17.6184,0.7117 33.7806,-2.4942 50.0714,-0.4532 13.0719,1.0646 26.9529,1.4663 40.5556,-1.1328 13.1698,5.685 28.4842,-4.7925 40.1024,1.3594 25.2584,-2.753 51.2528,3.9315 76.5797,-0.2266 15.1302,6.23 33.888,-2.3661 48.712,-0.2265 15.1231,6.6608 33.2727,-4.1139 48.4854,0.4531 15.0591,1.3362 30.9662,-1.0838 46.4463,0.2266 10.176,0.5711 17.5787,1.0512 28.5475,-1.3594 25.6479,-0.2524 50.5934,-0.3144 74.7672,2.7188 18.6541,4.4947 40.5866,-6.4342 57.7747,-1.8126 25.6607,2.7768 51.7748,-2.6486 78.1814,1.1329 24.3428,-2.3793 45.7558,-1.5348 69.9936,-0.2266 8.6035,-2.1785 17.9577,-4.7836 27.6412,-0.9063 20.8961,6.3058 46.5499,-2.6007 68.8765,2.4923 21.6738,-0.5747 41.6459,-4.5976 62.0804,-1.1329 11.4546,-5.6304 26.2327,1.7721 39.4227,-1.3594 24.1032,1.9115 48.273,-2.3551 72.0484,1.1329 18.7136,-5.1397 39.9583,3.2822 58.681,-1.8126 15.9646,4.5056 33.2395,-0.7807 49.8448,0.9063 13.5836,-7.9164 30.5616,6.0298 46.2197,-0.6797 26.1971,4.5904 52.7876,-2.8826 80.2049,0.4531 18.5883,-1.7123 38.0405,-0.6665 56.1886,4.5314 20.3654,-3.4131 43.5069,-7.3676 63.4389,-2.0391 18.4572,-0.442 34.5747,-5.2226 51.6573,-0.2266 22.5516,-1.8674 46.0256,-2.7593 67.9702,-1.586 15.3684,-5.7246 29.4829,1.4716 44.4072,1.586 13.6542,-1.5895 31.2915,-3.8367 44.1807,-1.586 14.2147,2.0407 28.7455,-5.8857 42.5946,-0.2265 16.9599,2.6713 33.6899,-3.1012 49.8448,0.9062 14.5033,-1.1306 31.8244,4.172 43.501,-2.9454 23.8964,0.4324 46.7299,4.3713 69.7983,0.6798 17.2955,3.5993 36.1268,0.6682 53.4543,0 23.3231,7.2853 50.0671,-1.9433 74.5406,2.7188 3.2524,-0.4933 7.833,-0.8553 11.1533,-1.0214 l 0.01,29.9907 c -5.325,1.9681 -10.6733,0.4788 -15.4119,-2.2344 z"
       inkscape:connector-curvature="0"
       inkscape:export-filename="C:\Users\ckr\Desktop\WikiSkins\Light\Footer.png"
       inkscape:export-xdpi="90"
       inkscape:export-ydpi="90" />
    <rect
       y="-1318.9055"
       x="-15"
       height="15"
       width="15"
       id="rect4245"
       style="fill:none;stroke:none"
       inkscape:export-filename="C:\Users\ckr\Desktop\WikiSkins\Light\TopLeftCorner.png"
       inkscape:export-xdpi="90"
       inkscape:export-ydpi="90" />
    <rect
       style="fill:none;stroke:none"
       id="rect4247"
       width="1024"
       height="15"
       x="0"
       y="-1318.9055"
       inkscape:export-filename="C:\Users\ckr\Desktop\WikiSkins\Light\TopBorder.png"
       inkscape:export-xdpi="90"
       inkscape:export-ydpi="90" />
    <rect
       style="fill:none;stroke:none"
       id="rect4283"
       width="15"
       height="1024"
       x="-15"
       y="-1303.9055"
       inkscape:export-filename="C:\Users\ckr\Desktop\WikiSkins\Light\LeftBorder.png"
       inkscape:export-xdpi="90"
       inkscape:export-ydpi="90" />
  </g>
  <g
     inkscape:label="Borders"
     inkscape:groupmode="layer"
     id="layer1"
     transform="translate(0,-308.2677)"
     style="display:inline"
     sodipodi:insensitive="true">
    <image
       sodipodi:absref="C:\Users\ckr\Desktop\WikiSkins\Light\../PergamentLight.jpg"
       xlink:href="../PergamentLight.jpg"
       transform="translate(1024,0)"
       mask="url(#mask3269)"
       style="display:inline"
       inkscape:export-ydpi="89"
       inkscape:export-xdpi="89"
       inkscape:export-filename="C:\Users\ckr\Desktop\WikiSkins\Light\Footer.png"
       clip-path="url(#clipPath3279)"
       width="1024"
       height="1024"
       id="image3241"
       x="-2192"
       y="-2556.6379" />
    <image
       sodipodi:absref="C:\Users\ckr\Desktop\WikiSkins\Light\../PergamentLight.jpg"
       xlink:href="../PergamentLight.jpg"
       mask="url(#mask3288)"
       inkscape:export-ydpi="89"
       inkscape:export-xdpi="89"
       inkscape:export-filename="C:\Users\ckr\Desktop\WikiSkins\Light\Footer.png"
       clip-path="url(#clipPath3294)"
       width="1024"
       height="1024"
       id="image3924"
       x="-3216"
       y="-2556.6379"
       style="display:inline" />
    <image
       sodipodi:absref="C:\Users\ckr\Desktop\WikiSkins\Light\../PergamentLight.jpg"
       xlink:href="../PergamentLight.jpg"
       y="-2556.6379"
       x="-2192"
       id="image2826-1-4"
       height="1024"
       width="1024"
       clip-path="url(#clipPath3279)"
       inkscape:export-filename="C:\Users\ckr\Desktop\WikiSkins\Light\Footer.png"
       inkscape:export-xdpi="89"
       inkscape:export-ydpi="89"
       style="display:inline"
       mask="url(#mask3269)" />
    <image
       sodipodi:absref="C:\Users\ckr\Desktop\WikiSkins\Light\../PergamentLight.jpg"
       xlink:href="../PergamentLight.jpg"
       y="-995.63782"
       x="0"
       id="image2826"
       height="1024"
       width="1024" />
    <image
       sodipodi:absref="C:\Users\ckr\Desktop\WikiSkins\Light\../PergamentLight.jpg"
       xlink:href="../PergamentLight.jpg"
       y="-2019.6379"
       x="0"
       id="image2826-1"
       height="1024"
       width="1024"
       clip-path="url(#clipPath3212)"
       inkscape:export-filename="C:\Users\ckr\Desktop\WikiSkins\Light\TopBorder.png"
       inkscape:export-xdpi="90"
       inkscape:export-ydpi="90" />
    <image
       sodipodi:absref="C:\Users\ckr\Desktop\WikiSkins\Light\../PergamentLight.jpg"
       xlink:href="../PergamentLight.jpg"
       y="-995.63782"
       x="-1024"
       id="image2826-7"
       height="1024"
       width="1024"
       clip-path="url(#clipPath3217)"
       inkscape:export-filename="C:\Users\ckr\Desktop\WikiSkins\Light\LeftBorder.png"
       inkscape:export-xdpi="90"
       inkscape:export-ydpi="90" />
    <image
       sodipodi:absref="C:\Users\ckr\Desktop\WikiSkins\Light\../PergamentLight.jpg"
       xlink:href="../PergamentLight.jpg"
       y="-3043.6379"
       x="-2048"
       id="image2826-7-4"
       height="2048"
       width="2048"
       clip-path="url(#clipPath3732)"
       inkscape:export-filename="C:\Users\ckr\Desktop\WikiSkins\Light\TopLeftCorner.png"
       inkscape:export-xdpi="90"
       inkscape:export-ydpi="90" />
    <rect
       style="fill:#000000;fill-opacity:1;stroke:none;filter:url(#filter3984)"
       id="rect2852"
       width="2063"
       height="6"
       x="-15"
       y="-1013.6378" />
    <rect
       style="fill:#000000;fill-opacity:1;stroke:none;filter:url(#filter3968)"
       id="rect3736"
       width="6"
       height="2078"
       x="-18"
       y="-1010.6378" />
    <rect
       y="-1535.6378"
       x="-2207"
       height="6"
       width="2063"
       id="rect3907"
       style="fill:#000000;fill-opacity:1;stroke:none;filter:url(#filter4066)" />
    <rect
       y="-1554.6378"
       x="-2210"
       height="22"
       width="6"
       id="rect4008"
       style="fill:#000000;fill-opacity:1;stroke:none;filter:url(#filter4106)"
       inkscape:export-filename="C:\Users\ckr\Desktop\WikiSkins\Light\Footer.png"
       inkscape:export-xdpi="89"
       inkscape:export-ydpi="89" />
  </g>
  <g
     inkscape:groupmode="layer"
     id="layer5"
     inkscape:label="Footer"
     sodipodi:insensitive="true"
     style="display:inline">
    <g
       style="display:inline"
       id="g2980"
       inkscape:export-filename="C:\Users\ckr\Desktop\WikiSkins\Light\Footer.png"
       inkscape:export-xdpi="89.702477"
       inkscape:export-ydpi="89.702477"
       transform="translate(-2420,-229.82322)">
      <image
         sodipodi:absref="C:\Users\ckr\Desktop\WikiSkins\Light\../PergamentLight.png"
         xlink:href="../PergamentLight.png"
         inkscape:export-ydpi="90"
         inkscape:export-xdpi="90"
         inkscape:export-filename="C:\Documents and Settings\Administrator\Desktop\OpenDungeons\WikiSkins\Light\Footer.png"
         transform="translate(0,-191.99592)"
         y="-3195.6379"
         x="0"
         id="image2995"
         height="2048"
         width="2048"
         clip-path="url(#clipPath3049)" />
      <path
         d="m 2048.009,-1525.9149 c -5.325,1.9681 -10.6733,0.4788 -15.4119,-2.2344 -14.2443,-1.3032 -29.478,4.8999 -44.4072,0.9063 -12.755,-5.2477 -24.2235,4.2836 -37.3836,0.4531 -19.432,-4.1405 -42.1486,0.3121 -62.0795,1.8125 -19.7395,-7.3027 -41.3988,1.9654 -62.7591,-3.1719 -14.3367,3.5429 -28.0362,-2.396 -39.6493,2.7188 -11.7655,4.2441 -22.0435,-2.4571 -33.7586,-2.9454 -14.2641,-6.5322 -27.1082,5.0448 -42.3487,2.0391 -26.7844,-3.0716 -53.1521,-2.2701 -79.9976,0.4532 -22.9455,6.7595 -46.2145,-8.7416 -67.5171,1.1328 -22.4596,-1.1766 -45.4818,-6.6868 -67.2905,-0.9063 -9.5963,-3.7619 -18.8767,0.1695 -31.4928,-0.4531 -17.4647,-4.9429 -34.1816,1.2878 -53.6965,0.2266 -14.3921,-6.5927 -27.8691,1.8912 -44.1806,-0.2266 -17.8174,-10.722 -39.536,8.0443 -60.0403,-0.6797 -14.9277,4.8077 -29.0873,-8.5414 -41.0087,0 -18.4657,2.2483 -39.6967,-1.2058 -58.0013,-2.2657 -18.2972,3.3241 -37.8841,4.7499 -58.6809,4.5314 -2.5198,-5.8614 -11.3719,-4.2104 -17.6723,-6.1173 -15.9683,9.5047 -36.8939,0.7235 -55.0558,1.8125 -11.6405,6.3273 -24.2865,1.1027 -36.9305,-0.2266 -15.5935,5.1135 -39.5654,8.3219 -54.60316,0.4532 -23.64062,1.7134 -48.58236,8.4105 -71.82184,-0.9063 -15.98236,1.5067 -30.45847,4.5592 -47.57913,2.7188 -15.58727,-1.4098 -27.41635,-1.2637 -42.59466,0.9063 -14.31107,-6.182 -30.69868,1.9173 -46.67287,0.9062 -12.57762,-7.1928 -30.19926,3.0567 -44.86033,-1.5859 -19.60292,-0.5042 -38.66137,2.9456 -56.8684,-2.2657 -11.8048,-8.2879 -16.97988,6.7872 -28.54748,3.8516 -15.73698,-9.7429 -34.20514,2.2694 -52.33705,-1.1328 -13.8843,-4.8024 -30.92462,3.2199 -42.59466,-2.0391 -19.55576,0.8485 -43.62731,3.1165 -64.34512,-0.6797 -8.07939,3.0738 -17.88368,6.6589 -27.18808,1.8125 -8.45381,-5.5431 -12.81598,0.4551 -23.10986,0.6797 -24.70831,-3.7495 -49.22452,2.8899 -74.08752,0.2266 -16.77171,-5.9613 -33.7982,2.2034 -53.24332,0 -12.25817,-5.2426 -22.323,0.4983 -34.21166,2.2657 -18.27502,-3.217 -37.33622,-6.8624 -55.509,-1.1329 -18.38856,-8.6525 -43.97738,3.4971 -64.11855,-2.2656 -12.04405,-3.6061 -29.43307,7.9764 -40.78212,-1.3594 -19.142252,5.6278 -42.203838,-2.3013 -61.8529,3.1719 -5.27297,-4.4889 -14.476016,0.016 -24.016137,-0.2266 -7.71703,-4.5657 -17.431421,0.1 -27.697853,-0.293 m 0,-29.9334 c 6.6355642,-1.0588 15.858168,3.8347 23.109863,-1.2664 13.488716,3.141 26.299319,-2.2891 38.516445,2.2657 16.260657,1.3423 29.085807,-6.4047 43.047842,-0.4532 14.30728,-0.8044 22.98497,-1.8533 36.0242,-0.9062 13.98925,-1.3896 29.59033,0.5974 42.82123,-1.8126 8.39215,2.3182 16.42669,4.9865 26.50837,1.8126 17.61838,0.7117 33.78058,-2.4942 50.07138,-0.4532 13.07182,1.0646 26.95288,1.4663 40.55555,-1.1328 13.16978,5.685 28.48421,-4.7925 40.10242,1.3594 25.25836,-2.753 51.2528,3.9315 76.57975,-0.2266 15.13018,6.23 33.88796,-2.3661 48.71198,-0.2265 15.1231,6.6608 33.27263,-4.1139 48.4854,0.4531 15.0591,1.3362 30.9662,-1.0838 46.44631,0.2266 10.17595,0.5711 17.57871,1.0512 28.54748,-1.3594 25.64787,-0.2524 50.59339,-0.3144 74.76721,2.7188 18.65405,4.4947 40.58657,-6.4342 57.77467,-1.8126 25.66073,2.7768 51.77477,-2.6486 78.18136,1.1329 24.3428,-2.3793 45.75587,-1.5348 69.99367,-0.2266 8.6035,-2.1785 17.95771,-4.7836 27.64121,-0.9063 20.8961,6.3058 46.54991,-2.6007 68.87647,2.4923 21.67377,-0.5747 41.64589,-4.5976 62.08039,-1.1329 11.4546,-5.6304 26.2327,1.7721 39.4227,-1.3594 24.1032,1.9115 48.273,-2.3551 72.0484,1.1329 18.7136,-5.1397 39.9583,3.2822 58.681,-1.8126 15.9646,4.5056 33.2395,-0.7807 49.8448,0.9063 13.5836,-7.9164 30.5616,6.0298 46.2197,-0.6797 26.1971,4.5904 52.7876,-2.8826 80.2049,0.4531 18.5883,-1.7123 38.0405,-0.6665 56.1886,4.5314 20.3654,-3.4131 43.5069,-7.3676 63.4389,-2.0391 18.4572,-0.442 34.5747,-5.2226 51.6573,-0.2266 22.5516,-1.8674 46.0256,-2.7593 67.9702,-1.586 15.3684,-5.7246 29.4829,1.4716 44.4072,1.586 13.6542,-1.5895 31.2915,-3.8367 44.1807,-1.586 14.2147,2.0407 28.7455,-5.8857 42.5946,-0.2265 16.9599,2.6713 33.6899,-3.1012 49.8448,0.9062 14.5033,-1.1306 31.8244,4.172 43.501,-2.9454 23.8964,0.4324 46.7299,4.3713 69.7983,0.6798 17.2955,3.5993 36.1268,0.6682 53.4543,0 23.3231,7.2853 50.0671,-1.9433 74.5406,2.7188 3.2524,-0.4933 7.833,-0.8553 11.1533,-1.0214"
         style="fill:none;stroke:#000000;stroke-width:1px;stroke-linecap:butt;stroke-linejoin:miter;stroke-opacity:1;filter:url(#filter3913)"
         id="path3044"
         sodipodi:nodetypes="ccccccccccccccccccccccccccccccccccccccccccccccccccccccccccccccccccccccccccccccccccccc"
         inkscape:connector-curvature="0" />
    </g>
  </g>
  <g
     inkscape:groupmode="layer"
     id="layer2"
     inkscape:label="Buttons"
     style="display:inline">
    <g
       id="g5283"
       transform="translate(0,-20)"
       inkscape:export-filename="C:\Users\ckr\Desktop\WikiSkins\Light\PageTab.png"
       inkscape:export-xdpi="54.613602"
       inkscape:export-ydpi="54.613602">
      <image
         sodipodi:absref="C:\Users\ckr\Desktop\WikiSkins\Light\../PergamentLight.png"
         xlink:href="../PergamentLight.png"
         mask="url(#mask5267)"
         clip-path="url(#clipPath3659)"
         transform="translate(17.114691,-346.96241)"
         width="2048"
         height="2048"
         id="image2826-17"
         x="0"
         y="-3043.6379" />
      <path
         sodipodi:nodetypes="ccccccccccccc"
         id="path3633"
         d="m 36.075673,-1344.0061 c 4.08051,-4.228 4.445274,-10.4809 4.372952,-16.0371 5.673547,-3.1321 5.672921,-10.3887 7.768592,-15.7887 0.589552,-4.5954 3.095063,-10.9818 8.833412,-9.8215 5.008232,0.4461 10.003202,2.7752 15.048425,1.2384 6.486745,-0.6035 13.307423,0.5037 19.43522,-2.2739 5.26589,-2.0498 10.517926,1.473 15.795466,0.069 5.26928,-1.9816 9.67631,1.0913 14.28085,2.9535 4.84834,1.0498 9.8552,0.1549 14.71099,-0.3299 3.52051,-0.7225 10.36903,-4.6194 11.20002,1.1766 -0.15712,4.962 -0.15504,12.4149 5.26492,14.4437 5.06636,0.085 6.92169,5.1745 2.92735,8.3584 -3.44067,5.7721 6.3957,11.3183 2.63341,16.1579"
         style="fill:none;stroke:#000000;stroke-width:1.20336378px;stroke-linecap:butt;stroke-linejoin:miter;stroke-opacity:1;filter:url(#filter5279)"
         inkscape:connector-curvature="0" />
    </g>
    <g
       id="g3902"
       transform="translate(-140,0)"
       inkscape:export-filename="C:\Users\ckr\Desktop\WikiSkins\Light\DiscussionTab.png"
       inkscape:export-xdpi="54"
       inkscape:export-ydpi="54">
      <image
         sodipodi:absref="C:\Users\ckr\Desktop\WikiSkins\Light\../PergamentLight.png"
         xlink:href="../PergamentLight.png"
         y="-3043.6379"
         x="0"
         id="image2940"
         height="2048"
         width="2048"
         transform="translate(157.11469,-366.96241)"
         clip-path="url(#clipPath3874)"
         mask="url(#mask3868)" />
      <path
         sodipodi:nodetypes="cccccccccccccc"
         id="path3754"
         d="m 304.4717,-1364.7307 c 1.56107,-6.103 5.72868,-10.7851 9.12937,-15.6769 2.0569,-6.1433 -0.58058,-13.0617 3.69639,-18.5409 2.39161,-4.4419 6.26635,-9.9162 12.05795,-8.8598 10.17097,0.01 20.36104,1.3945 30.1093,4.166 7.58395,0.1366 15.21113,-0.9425 22.75925,0.1988 5.59302,5.3744 13.18939,0.2699 18.99379,-1.9634 6.54926,-1.5195 13.14249,1.3028 19.76929,0.3508 7.72311,-0.03 14.82806,3.5928 22.43367,0.2183 8.15188,-2.0532 11.73324,6.7457 14.56096,12.6104 4.06645,8.5298 5.3409,17.965 8.05875,26.908 l 0.2467,0.6783 0,4e-4 0,0"
         style="fill:none;stroke:#000000;stroke-width:1.20000005;stroke-linecap:butt;stroke-linejoin:miter;stroke-miterlimit:4;stroke-opacity:1;stroke-dasharray:none;filter:url(#filter3898)"
         inkscape:connector-curvature="0" />
    </g>
    <g
       style="display:inline"
       id="g4134"
       inkscape:export-filename="C:\Users\ckr\Desktop\WikiSkins\Light\EditTab.png"
       inkscape:export-xdpi="53.884525"
       inkscape:export-ydpi="53.884525">
      <image
         sodipodi:absref="C:\Users\ckr\Desktop\WikiSkins\Light\../PergamentLight.png"
         xlink:href="../PergamentLight.png"
         y="-3043.6379"
         x="0"
         id="image3930"
         height="2048"
         width="2048"
         transform="translate(17.114691,-366.96241)"
         clip-path="url(#clipPath4098)"
         mask="url(#mask4092)" />
      <path
         sodipodi:nodetypes="cccccccccccc"
         id="path4086"
         d="m 332.07535,-1363.5949 c 0,0 6.5372,-15.6352 8.53506,-23.6178 -0.0718,-3.7092 -0.53407,-7.9259 2.22055,-10.8818 1.72706,-3.0529 6.84701,-0.6345 8.58202,-4.3247 1.30082,-2.0521 4.07707,1.7959 6.52899,0.7498 3.78193,-0.029 6.75875,-2.6622 10.38182,-3.3116 3.70918,-0.8807 5.62475,3.3418 11.48347,0.4196 4.8758,0.9885 9.3534,2.7382 14.53121,1.0309 3.78069,-2.2522 8.91508,-0.5615 10.31373,3.6276 2.65176,3.0467 5.45572,6.3641 5.69029,10.6045 0.52789,5.6245 3.05267,10.7798 4.51475,16.1892 0.76583,2.9655 1.38498,9.5146 1.38498,9.5146"
         style="fill:none;stroke:#000000;stroke-width:1.20000005;stroke-miterlimit:4;stroke-opacity:1;stroke-dasharray:none;filter:url(#filter4130)"
         inkscape:connector-curvature="0" />
    </g>
    <g
       style="display:inline"
       id="g4232"
       inkscape:export-filename="C:\Users\ckr\Desktop\WikiSkins\Light\HistoryTab.png"
       inkscape:export-xdpi="54"
       inkscape:export-ydpi="54">
      <image
         sodipodi:absref="C:\Users\ckr\Desktop\WikiSkins\Light\../PergamentLight.png"
         xlink:href="../PergamentLight.png"
         y="-3043.6379"
         x="0"
         id="image4143"
         height="2048"
         width="2048"
         transform="translate(17.114691,-366.96241)"
         clip-path="url(#clipPath4224)"
         mask="url(#mask4218)" />
      <path
         sodipodi:nodetypes="ccssssssssssc"
         id="path4216"
         d="m 420.07535,-1363.9996 c 2.30897,-5.3756 3.59641,-10.2886 4.37296,-16.0439 2.10025,-5.3652 0.19053,-14.5941 6.32559,-16.3486 5.66066,-1.6189 9.3529,-10.8294 14.84044,-6.9672 4.45932,3.1385 8.62009,0.9507 12.72347,-1.2233 5.27582,-2.7951 11.77379,3.1317 17.39136,0.2979 4.3652,-2.2021 8.68006,-2.3403 13.04939,0 3.73104,1.9984 8.54501,-1.5929 12.42644,-1.1655 5.14309,0.5663 10.58995,2.1823 15.90956,2.9699 5.22693,0.7738 11.16212,-5.1766 15.33632,-0.3587 3.88239,4.4811 4.5288,10.5997 4.64834,16.3344 0.11519,5.526 5.00681,9.8012 4.82702,15.5596 -0.14123,4.5235 2.0709,6.9454 2.0709,6.9454"
         style="fill:none;stroke:#000000;stroke-width:1.20000005;stroke-miterlimit:4;stroke-opacity:1;stroke-dasharray:none;filter:url(#filter4228)"
         inkscape:connector-curvature="0" />
    </g>
    <g
       style="display:inline"
       id="g4298"
       inkscape:export-filename="C:\Users\ckr\Desktop\WikiSkins\Light\MoveTab.png"
       inkscape:export-xdpi="54"
       inkscape:export-ydpi="54">
      <image
         sodipodi:absref="C:\Users\ckr\Desktop\WikiSkins\Light\../PergamentLight.png"
         xlink:href="../PergamentLight.png"
         transform="translate(17.114691,-366.96241)"
         mask="url(#mask4284)"
         clip-path="url(#clipPath4290)"
         width="2048"
         height="2048"
         id="image4241"
         x="0"
         y="-3043.6379" />
      <path
         sodipodi:nodetypes="csssssssssssssc"
         id="path4278"
         d="m 550.07535,-1363.9943 c 0,0 3.58643,-10.3514 3.58643,-16.0489 l 0,-3e-4 c 0,-5.0814 1.20564,-8.1501 1.19105,-11.9266 -0.0192,-4.9819 5.54428,-8.1807 9.35308,-11.0217 4.25297,-3.1723 9.384,2.776 13.98176,0.1756 4.32195,-2.4445 9.34505,-4.2881 14.35985,-2.1394 4.74769,2.0342 9.20621,-1.6755 14.21408,0.6449 4.4221,2.049 7.97922,-3.4119 13.04472,-1.0168 4.29515,2.0308 9.36339,0.6136 14.0224,1.5625 3.71997,0.7577 7.98014,-1.153 10.26813,3.527 1.7187,3.5156 -1.34538,8.0057 1.75791,10.19 2.04429,1.4389 5.71049,1.8468 3.79595,5.2086 -1.93976,3.406 -1.66758,6.6266 0.18325,10.1128 1.51728,2.858 0.97066,10.4853 0.97066,10.4853"
         style="fill:none;stroke:#000000;stroke-width:1.20000005;stroke-miterlimit:4;stroke-opacity:1;stroke-dasharray:none;filter:url(#filter4294)"
         inkscape:connector-curvature="0" />
    </g>
    <g
       style="display:inline"
       id="g4367"
       inkscape:export-filename="C:\Users\ckr\Desktop\WikiSkins\Light\WatchTab.png"
       inkscape:export-xdpi="54"
       inkscape:export-ydpi="54">
      <image
         sodipodi:absref="C:\Users\ckr\Desktop\WikiSkins\Light\../PergamentLight.png"
         xlink:href="../PergamentLight.png"
         mask="url(#mask4353)"
         clip-path="url(#clipPath4359)"
         transform="translate(17.114691,-366.96241)"
         width="2048"
         height="2048"
         id="image4307"
         x="0"
         y="-3043.6379" />
      <path
         sodipodi:nodetypes="ccsssssssssssc"
         id="path4351"
         d="m 660.07535,-1363.5946 c 0.13668,-5.9537 2.68255,-8.788 1.86491,-14.4895 -0.32396,-6.9277 1.72755,-13.963 4.56211,-20.2968 2.24966,-5.0268 8.64009,0.7964 12.02622,-2.1781 4.00801,-3.5209 8.29887,-1.3164 12.79308,-0.7669 4.61635,0.5644 7.0401,-4.2685 11.77908,-3.8588 4.16765,0.3603 8.82775,2.5042 12.13868,1.7171 4.77396,-1.1348 8.0888,2.4451 12.29562,0.985 5.46332,-1.8962 10.14837,2.1171 15.41962,0.089 4.53314,-1.7441 8.28124,2.6801 13.12233,0.9291 5.11738,-1.851 4.14696,7.1948 6.60948,10.2459 1.73335,2.1477 -3.07297,4.4216 0.62154,6.8507 3.66182,2.4076 -0.29749,8.2902 2.61202,12.1975 2.04707,2.7491 1.01625,8.7623 1.01625,8.7623"
         style="fill:none;stroke:#000000;stroke-width:1.20000005;stroke-miterlimit:4;stroke-opacity:1;stroke-dasharray:none;filter:url(#filter4363)"
         inkscape:connector-curvature="0" />
    </g>
    <g
       id="g3890"
       inkscape:export-filename="C:\Users\ckr\Desktop\WikiSkins\Light\MyContributions.png"
       inkscape:export-xdpi="54"
       inkscape:export-ydpi="54">
      <image
         sodipodi:absref="C:\Users\ckr\Desktop\WikiSkins\Light\../PergamentLight.png"
         xlink:href="../PergamentLight.png"
         width="2048"
         height="2048"
         id="image3861"
         x="-2096"
         y="-1303.9055"
         style="display:inline"
         clip-path="url(#clipPath3885)"
         mask="none"
         transform="translate(0,-100)" />
      <path
         sodipodi:nodetypes="czssssssssssssc"
         id="path5428"
         d="m -310.47828,-1403.885 c 0,0 0.44357,6.8094 1.24663,9.2779 0.78271,2.406 2.24313,2.1253 2.93683,7.5473 0.84859,6.6327 1.07948,16.4665 6.58529,21.4329 5.05745,4.5619 10.70283,-1.6271 15.76088,3.3971 4.69584,4.6645 8.58952,-3.7636 14.24805,-2.2062 4.94658,1.3615 10.00775,3.6014 15.44326,2.0577 6.76773,-1.922 14.34062,-3.1688 20.73266,-3.9427 4.62803,-0.5603 8.90246,5.3832 14.47518,1.484 5.34661,-3.741 12.36847,1.5433 18.94027,0.2029 6.34454,-1.2941 14.27884,3.3962 20.4774,-0.9682 4.50493,-3.1719 8.33413,0.3991 12.15567,2.613 4.84335,2.8058 4.02273,-8.3794 10.35203,-10.6311 5.80062,-2.0637 0.0573,-12.5401 2.45153,-18.2731 2.073,-4.9639 3.68628,-11.9915 3.68628,-11.9915"
         style="fill:none;stroke:#000000;stroke-width:1.20000005;stroke-miterlimit:4;stroke-opacity:1;stroke-dasharray:none;filter:url(#filter3917)"
         inkscape:connector-curvature="0" />
    </g>
    <g
       id="g3881"
       inkscape:export-filename="C:\Users\ckr\Desktop\WikiSkins\Light\MyLogOut.png"
       inkscape:export-xdpi="54"
       inkscape:export-ydpi="54">
      <image
         sodipodi:absref="C:\Users\ckr\Desktop\WikiSkins\Light\../PergamentLight.png"
         xlink:href="../PergamentLight.png"
         mask="none"
         clip-path="url(#clipPath3841)"
         style="display:inline"
         y="-1303.9055"
         x="-2096"
         id="image2977"
         height="2048"
         width="2048"
         transform="translate(0,-100)" />
      <path
         sodipodi:nodetypes="ccsssssssssssc"
         id="path5440"
         d="m -128.40953,-1403.8877 c -1.30956,5.9426 -0.5581,11.5492 1.65536,17.125 1.56466,3.1159 -1.96741,7.6676 1.00482,10.2534 3.49576,3.0412 2.76336,8.158 5.17874,11.6347 2.82491,4.0662 9.83584,3.5717 12.83627,-0.5597 2.51308,-3.4604 7.97803,-2.3109 10.63288,0.748 2.67049,3.077 7.26327,1.752 10.80795,0.6908 3.66129,-1.0962 7.44645,1.192 11.315807,-0.6512 3.200438,-1.5245 5.903111,3.6635 9.21,0.5758 2.73131,-2.5503 8.44588,0.014 7.936536,-5.4985 -0.205083,-2.2194 0.0178,-4.6915 1.727442,-6.5079 2.727578,-2.898 0.587816,-7.1597 0.659643,-10.6335 0.08319,-4.0233 3.330145,-7.2106 3.755256,-11.3536 0.384551,-3.7478 -1.036944,-5.8103 -1.036944,-5.8103"
         style="fill:none;stroke:#000000;stroke-width:1.20000005;stroke-miterlimit:4;stroke-opacity:1;stroke-dasharray:none;filter:url(#filter3851)"
         inkscape:connector-curvature="0" />
    </g>
    <g
       id="g3899"
       inkscape:export-filename="C:\Users\ckr\Desktop\WikiSkins\Light\MyWatchlist.png"
       inkscape:export-xdpi="54"
       inkscape:export-ydpi="54">
      <image
         sodipodi:absref="C:\Users\ckr\Desktop\WikiSkins\Light\../PergamentLight.png"
         xlink:href="../PergamentLight.png"
         width="2048"
         height="2048"
         id="image3947"
         x="-2096"
         y="-1303.9055"
         style="display:inline"
         clip-path="url(#clipPath3969)"
         mask="none"
         transform="translate(0,-100)" />
      <path
         sodipodi:nodetypes="csssssssssssc"
         id="path3759"
         d="m -453.53586,-1403.8876 c 1.63274,9.7022 -1.07219,8.9446 2.78899,18.9054 2.19561,5.664 -2.63811,14.8286 2.35398,15.7656 4.31729,0.8103 9.59849,3.0185 14.22876,5.3557 4.70485,2.3747 18.92373,-5.6541 25.13693,-3.3395 5.45612,2.0325 15.89343,2.0073 21.88156,3.5148 5.05325,1.2722 9.8113,-3.9256 15.11353,-1.6929 4.15679,1.7504 7.88563,-1.5284 12.06648,-1.6108 3.99016,-0.079 7.99856,2.3586 11.6597,1.6778 4.48448,-0.8339 8.47876,-1.8162 13.16423,-1.4867 4.60372,0.3238 0.0927,-7.5755 3.64225,-11.2038 2.8531,-2.9165 4.93802,-7.6938 2.64143,-11.7285 -2.62744,-4.616 4.29207,-7.6831 -1.22184,-14.4841"
         style="fill:none;stroke:#000000;stroke-width:1.20000005;stroke-miterlimit:4;stroke-opacity:1;stroke-dasharray:none;filter:url(#filter3983)"
         inkscape:connector-curvature="0" />
    </g>
    <g
       id="g3926"
       inkscape:export-xdpi="54"
       inkscape:export-ydpi="54"
       inkscape:export-filename="C:\Users\ckr\Desktop\WikiSkins\Light\MyUsername.png">
      <image
         sodipodi:absref="C:\Users\ckr\Desktop\WikiSkins\Light\../PergamentLight.png"
         xlink:href="../PergamentLight.png"
         width="2048"
         height="2048"
         id="image3991"
         x="-2096"
         y="-1303.9055"
         style="display:inline"
         clip-path="url(#clipPath4049)"
         mask="none"
         transform="translate(0,-100)" />
      <path
         sodipodi:nodetypes="cccccccccccccc"
         id="path3833"
         d="m -971.38631,-1403.8955 c -2.89643,5.5358 2.89312,10.1954 1.46597,15.5291 -2.73644,5.4217 -0.30073,10.818 2.66225,15.2861 l 0,0 c 0.008,5.1475 7.47428,6.6655 11.58936,7.8064 7.07578,-1.4886 14.37089,-3.5006 20.88887,0.8775 6.34076,1.6881 13.2565,1.0828 19.1316,-1.7618 7.32889,-0.5192 14.7911,2.5729 21.83079,-0.8243 8.03898,-0.5081 15.27978,6.7908 23.36884,3.567 7.16204,-1.3188 14.86366,-1.2073 21.29974,-5.0728 7.12729,1.1681 14.09296,4.3498 21.44639,3.3513 6.62665,2.4565 8.72564,-5.8762 13.66839,-6.8912 4.62739,-5.0239 -0.43336,-10.2038 1.96021,-15.882 2.47782,-3.6814 2.22608,-8.0745 0.53199,-15.8732"
         style="fill:none;stroke:#000000;stroke-opacity:1;filter:url(#filter4063)"
         inkscape:connector-curvature="0" />
    </g>
    <g
       id="g3908"
       inkscape:export-filename="C:\Users\ckr\Desktop\WikiSkins\Light\MyPreferences.png"
       inkscape:export-xdpi="54"
       inkscape:export-ydpi="54">
      <image
         sodipodi:absref="C:\Users\ckr\Desktop\WikiSkins\Light\../PergamentLight.png"
         xlink:href="../PergamentLight.png"
         mask="none"
         clip-path="url(#clipPath3819)"
         style="display:inline"
         y="-1303.9055"
         x="-2096"
         id="image4015"
         height="2048"
         width="2048"
         transform="translate(0,-100)" />
      <path
         sodipodi:nodetypes="cccccccccccccccc"
         id="path3808"
         d="m -609.63491,-1403.8795 c -2.91567,2.5433 2.56854,7.4051 -1.59674,9.2728 l 0,-4e-4 c -3.03076,5.3474 1.74835,10.7103 5.90415,13.7037 8.01197,3.4016 -5.60434,12.836 1.9008,16.6191 4.98108,-0.2799 16.20177,-6.4669 17.92685,1.8603 5.54526,6.1303 10.78083,-3.8789 16.56347,-3.7335 5.55249,1.4867 11.01337,9.1423 16.94828,3.6964 4.41974,-5.5967 10.14302,1.3439 15.57149,-0.6358 4.73223,-1.8657 10.62107,-3.5546 15.22001,-0.4226 4.32956,0.2703 8.18864,-2.2404 12.03011,1.392 4.30572,3.4009 11.12309,4.1604 13.8217,-1.5894 5.41235,-5.3114 11.39554,2.226 17.35897,-0.711 5.30313,-0.8787 13.81435,-1.8481 12.76758,-8.7391 0.4613,-5.5369 5.10819,-8.9753 2.88849,-14.5915 1.54402,-6.5446 2.78066,-10.9932 1.22789,-16.051"
         style="fill:none;stroke:#000000;stroke-width:1.20000005;stroke-miterlimit:4;stroke-opacity:1;stroke-dasharray:none;filter:url(#filter4031)"
         inkscape:connector-curvature="0" />
    </g>
    <g
       id="g3917"
       inkscape:export-filename="C:\Users\ckr\Desktop\WikiSkins\Light\MyTalk.png"
       inkscape:export-xdpi="54"
       inkscape:export-ydpi="54">
      <image
         sodipodi:absref="C:\Users\ckr\Desktop\WikiSkins\Light\../PergamentLight.png"
         xlink:href="../PergamentLight.png"
         mask="none"
         clip-path="url(#clipPath3858)"
         style="display:inline"
         y="-1303.9055"
         x="-2096"
         id="image3927"
         height="2048"
         width="2048"
         transform="translate(0,-100)" />
      <path
         sodipodi:nodetypes="csssssssssssssc"
         id="path3856"
         d="m -715.93388,-1403.8876 c -1.0599,7.2233 -0.094,14.6248 1.97547,21.6228 1.30157,4.4014 -1.28578,9.9591 1.87037,13.8357 1.78569,2.1933 3.29736,4.7483 6.06823,6.15 3.08649,1.5613 6.41934,1.3451 9.298,0.4467 3.73143,-1.1646 7.11922,1.9387 10.40556,-1.0856 3.22123,-2.9644 7.86693,-2.0251 11.4198,-0.5532 3.80598,1.5768 7.28502,-0.763 10.78469,0.8868 3.99059,1.8813 5.14857,-2.864 7.65816,-3.9927 2.95201,-1.3276 4.79457,4.7841 7.66785,4.9911 3.18935,0.2298 4.98395,-6.1464 8.80202,-3.7534 2.85626,1.7901 4.71638,-3.1103 5.01977,-5.6333 0.35878,-2.9836 -0.8807,-6.0611 0.79786,-8.8164 1.83544,-3.0128 4.39969,-6.5859 2.80966,-10.3299 -1.883,-4.4338 0.18614,-9.4596 -1.25816,-13.9966"
         style="fill:none;stroke:#000000;stroke-width:1.20000005;stroke-miterlimit:4;stroke-opacity:1;stroke-dasharray:none;filter:url(#filter3868)"
         inkscape:connector-curvature="0" />
    </g>
    <g
       id="g4001"
       inkscape:export-filename="C:\Users\ckr\Desktop\WikiSkins\Light\SpecialPageTab.png"
       inkscape:export-xdpi="52.921253"
       inkscape:export-ydpi="52.921253"
       transform="translate(280,0)">
      <image
         sodipodi:absref="C:\Users\ckr\Desktop\WikiSkins\Light\../PergamentLight.png"
         xlink:href="../PergamentLight.png"
         y="-3043.6379"
         x="0"
         id="image3043"
         height="2048"
         width="2048"
         transform="translate(277.11469,-366.96241)"
         clip-path="url(#clipPath3917)"
         mask="url(#mask3931)" />
      <path
         style="fill:none;stroke:#000000;stroke-width:1.20000005;stroke-linecap:round;stroke-miterlimit:4;stroke-opacity:1;stroke-dasharray:none;filter:url(#filter3997)"
         d="m 920.07535,-1362.6203 c -0.0365,-5.0213 4.24076,-9.361 2.87436,-14.4845 l 0,0 c -1.39111,-6.8483 0.30323,-13.831 3.65288,-19.7897 4.62683,-6.3359 12.43369,2.6505 17.19484,-2.3221 4.81311,-7.5726 12.30488,3.0388 18.45109,-2.8629 6.95947,-3.3094 14.46173,2.3249 21.58934,-1.8527 7.27411,-3.1547 13.23032,7.4778 20.20474,2.9217 6.1552,-5.6451 14.6913,0.2345 21.7653,-2.2966 7.3855,-0.9723 13.8535,6.3852 21.2201,2.907 6.4832,-3.6043 13.4934,-1.4555 20.3239,-0.6598 6.8486,-0.7195 9.6237,5.4419 13.5201,9.857 0.9301,5.5303 3.0432,11.4966 2.0067,17.1992 0.8858,3.5045 0.5193,11.3892 0.5193,11.3892"
         id="path3927"
         sodipodi:nodetypes="cccccccccccccc"
         inkscape:connector-curvature="0" />
    </g>
    <text
       xml:space="preserve"
       style="font-size:21.47336388px;font-style:normal;font-weight:normal;fill:#000000;fill-opacity:1;stroke:none;font-family:Bitstream Vera Sans"
       x="-966.23438"
       y="-1280.8516"
       id="text3000"><tspan
         sodipodi:role="line"
         id="tspan3002"
         x="-966.23438"
         y="-1280.8516">MyUsername</tspan></text>
    <text
       id="text3004"
       y="-1280.8516"
       x="-708.37097"
       style="font-size:21.47336388px;font-style:normal;font-weight:normal;fill:#000000;fill-opacity:1;stroke:none;font-family:Bitstream Vera Sans"
       xml:space="preserve"><tspan
         y="-1280.8516"
         x="-708.37097"
         id="tspan3006"
         sodipodi:role="line">MyTalk</tspan></text>
    <text
       xml:space="preserve"
       style="font-size:21.47336388px;font-style:normal;font-weight:normal;fill:#000000;fill-opacity:1;stroke:none;font-family:Bitstream Vera Sans"
       x="-609.43793"
       y="-1280.8516"
       id="text3008"><tspan
         sodipodi:role="line"
         id="tspan3010"
         x="-609.43793"
         y="-1280.8516">MyPreferences</tspan></text>
    <text
       id="text3012"
       y="-1280.8516"
       x="-451.43793"
       style="font-size:21.47336388px;font-style:normal;font-weight:normal;fill:#000000;fill-opacity:1;stroke:none;font-family:Bitstream Vera Sans"
       xml:space="preserve"><tspan
         y="-1280.8516"
         x="-451.43793"
         id="tspan3014"
         sodipodi:role="line">MyWatchlist</tspan></text>
    <text
       xml:space="preserve"
       style="font-size:21.47336388px;font-style:normal;font-weight:normal;fill:#000000;fill-opacity:1;stroke:none;font-family:Bitstream Vera Sans"
       x="-313.43793"
       y="-1280.8516"
       id="text3016"><tspan
         sodipodi:role="line"
         id="tspan3018"
         x="-313.43793"
         y="-1280.8516">MyContributions</tspan></text>
    <text
       id="text3024"
       y="-1280.8516"
       x="-145.43793"
       style="font-size:21.47336388px;font-style:normal;font-weight:normal;fill:#000000;fill-opacity:1;stroke:none;font-family:Bitstream Vera Sans"
       xml:space="preserve"><tspan
         y="-1280.8516"
         x="-145.43793"
         id="tspan3026"
         sodipodi:role="line">MyLogOut</tspan></text>
    <text
       xml:space="preserve"
       style="font-size:21.47336388px;font-style:normal;font-weight:normal;fill:#000000;fill-opacity:1;stroke:none;font-family:Bitstream Vera Sans"
       x="52.562073"
       y="-1442.8516"
       id="text3028"><tspan
         sodipodi:role="line"
         id="tspan3030"
         x="52.562073"
         y="-1442.8516">PageTab</tspan></text>
    <text
       id="text3032"
       y="-1442.8516"
       x="172.56207"
       style="font-size:21.47336388px;font-style:normal;font-weight:normal;fill:#000000;fill-opacity:1;stroke:none;font-family:Bitstream Vera Sans"
       xml:space="preserve"><tspan
         y="-1442.8516"
         x="172.56207"
         id="tspan3034"
         sodipodi:role="line">DiscussionTab</tspan></text>
    <text
       xml:space="preserve"
       style="font-size:21.47336388px;font-style:normal;font-weight:normal;fill:#000000;fill-opacity:1;stroke:none;font-family:Bitstream Vera Sans"
       x="334.56207"
       y="-1442.8516"
       id="text3036"><tspan
         sodipodi:role="line"
         id="tspan3038"
         x="334.56207"
         y="-1442.8516">EditTab</tspan></text>
    <text
       id="text3040"
       y="-1442.8516"
       x="424.56207"
       style="font-size:21.47336388px;font-style:normal;font-weight:normal;fill:#000000;fill-opacity:1;stroke:none;font-family:Bitstream Vera Sans"
       xml:space="preserve"><tspan
         y="-1442.8516"
         x="424.56207"
         id="tspan3042"
         sodipodi:role="line">HistoryTab</tspan></text>
    <text
       xml:space="preserve"
       style="font-size:21.47336388px;font-style:normal;font-weight:normal;fill:#000000;fill-opacity:1;stroke:none;font-family:Bitstream Vera Sans"
       x="548.56207"
       y="-1442.8516"
       id="text3044"><tspan
         sodipodi:role="line"
         id="tspan3046"
         x="548.56207"
         y="-1442.8516">MoveTab</tspan></text>
    <text
       id="text3048"
       y="-1442.8516"
       x="660.56207"
       style="font-size:21.47336388px;font-style:normal;font-weight:normal;fill:#000000;fill-opacity:1;stroke:none;font-family:Bitstream Vera Sans"
       xml:space="preserve"><tspan
         y="-1442.8516"
         x="660.56207"
         id="tspan3050"
         sodipodi:role="line">WatchTab</tspan></text>
    <text
       xml:space="preserve"
       style="font-size:21.47336388px;font-style:normal;font-weight:normal;fill:#000000;fill-opacity:1;stroke:none;font-family:Bitstream Vera Sans"
       x="1202.562"
       y="-1442.8516"
       id="text3052"><tspan
         sodipodi:role="line"
         id="tspan3054"
         x="1202.562"
         y="-1442.8516">SpecialPageTab</tspan></text>
    <text
       xml:space="preserve"
       style="font-size:21.47336388px;font-style:normal;font-weight:normal;fill:#000000;fill-opacity:1;stroke:none;font-family:Bitstream Vera Sans"
       x="780.56207"
       y="-1442.8516"
       id="text3062"><tspan
         sodipodi:role="line"
         id="tspan3064"
         x="780.56207"
         y="-1442.8516">UnwatchTab</tspan></text>
    <g
       id="g3913"
       inkscape:export-filename="C:\Users\ckr\Desktop\WikiSkins\Light\UnwatchTab.png"
       inkscape:export-xdpi="54"
       inkscape:export-ydpi="54">
      <image
         sodipodi:absref="C:\Users\ckr\Desktop\WikiSkins\Light\../PergamentLight.png"
         xlink:href="../PergamentLight.png"
         y="-3410.6003"
         x="17.114691"
         id="image3076"
         height="2048"
         width="2048"
         clip-path="url(#clipPath3890)"
         mask="url(#mask3894)" />
      <path
         sodipodi:nodetypes="cscsssssssssssc"
         id="path3104"
         d="m 780.07535,-1363.5946 c 0.0798,-2.9769 0.14482,-9.6485 2.6457,-12.3522 2.78764,-3.0137 0.008,-6.8428 -0.30032,-10.4957 -0.37809,-6.9277 1.27743,-11.888 7.35065,-15.6532 4.56739,-2.8317 6.8755,4.8489 10.82742,1.8744 4.67771,-3.5209 10.52979,-3.5959 15.77494,-3.0464 5.38769,0.5644 8.21643,0.966 13.74724,1.3757 4.86402,0.3603 9.71178,-3.4902 13.82922,-1.4067 5.07349,2.5672 14.92816,1.8541 19.83789,0.394 6.37619,-1.8962 6.8362,-0.4182 12.93041,1.7775 6.64143,2.3929 9.74938,1.4137 15.39936,-0.3373 5.97244,-1.851 5.91272,6.4611 7.71386,10.2459 1.26312,2.6543 5.5004,3.2412 3.34265,7.695 -2.3117,4.7716 -2.12018,6.8549 0.4312,11.3532 1.79689,3.1681 1.18605,8.7623 1.18605,8.7623"
         style="fill:none;stroke:#000000;stroke-width:1.20000005;stroke-miterlimit:4;stroke-opacity:1;stroke-dasharray:none;filter:url(#filter3904)"
         inkscape:connector-curvature="0" />
    </g>
  </g>
  <g
     inkscape:groupmode="layer"
     id="layer4"
     inkscape:label="Menu"
     style="display:inline"
     sodipodi:insensitive="true">
    <g
       id="g4199"
       inkscape:export-filename="C:\Users\ckr\Desktop\WikiSkins\Light\Menu.png"
       inkscape:export-xdpi="54.099613"
       inkscape:export-ydpi="54.099613">
      <image
         sodipodi:absref="C:\Users\ckr\Desktop\WikiSkins\Light\../PergamentLight.png"
         xlink:href="../PergamentLight.png"
         inkscape:export-ydpi="54"
         inkscape:export-xdpi="54"
         inkscape:export-filename="C:\Documents and Settings\Administrator\Desktop\OpenDungeons\WikiSkins\Light\Menu.png"
         clip-path="url(#clipPath4523)"
         width="2048"
         height="2048"
         id="image2826-8"
         x="2098"
         y="-1303.9055"
         style="display:inline" />
      <path
         inkscape:connector-curvature="0"
         inkscape:export-ydpi="54"
         inkscape:export-xdpi="54"
         inkscape:export-filename="C:\Documents and Settings\Administrator\Desktop\OpenDungeons\WikiSkins\Light\Menu.png"
         style="fill:none;stroke:#000000;stroke-width:5;stroke-linecap:butt;stroke-linejoin:miter;stroke-miterlimit:4;stroke-opacity:1;stroke-dasharray:none;filter:url(#filter4527)"
         d="m 2150.3057,-1247.7624 c -28.3426,21.6639 10.442,87.2097 -20.8014,132.5169 -2.6355,42.0642 5.3495,84.0607 17.6159,124.14097 1.6984,35.35549 -32.6697,67.50875 -15.256,102.84758 15.7351,44.3512 3.3773,91.99155 8.5949,137.67534 -1.6082,33.77275 -9.376,67.66016 -3.8337,101.45871 -10.3954,36.25849 20.1637,76.75185 -4.8386,110.0328 -4.7155,41.68981 49.6238,31.01937 75.3475,27.45621 30.7438,0.79076 61.3994,-7.54981 89.0115,10.38761 37.1492,-6.51046 74.3189,-3.45756 110.9407,-4.96794 40.5584,-13.89292 17.3876,-54.48879 7.3219,-79.81048 4.7923,-28.83977 10.4958,-57.41588 5.4238,-86.78379 -1.553,-26.83144 -1.8494,-53.83165 1.1947,-80.57371 25.3669,-41.48229 -13.8723,-89.2321 5.5098,-131.97337 12.2,-45.95568 -19.1762,-94.9992 4.3911,-139.14763 13.9077,-40.4529 -28.0911,-79.2646 -8.9291,-119.2002 -8.3629,-34.4837 8.5179,-70.8569 -1.5153,-104.3207 -21.859,-26.9303 -50.3625,16.1476 -77.1466,-4.7777 -38.0241,-14.1872 -75.3601,2.1351 -114.6248,-5.5278 -28.886,-0.5052 -61.6561,-2.236 -78.4063,10.5672 z"
         id="path4521"
         sodipodi:nodetypes="cccccccccccccccccccs" />
    </g>
  </g>
</svg>
