<?xml version="1.0" encoding="UTF-8" standalone="no"?>
<!-- Created with Inkscape (http://www.inkscape.org/) -->
<svg
   xmlns:dc="http://purl.org/dc/elements/1.1/"
   xmlns:cc="http://creativecommons.org/ns#"
   xmlns:rdf="http://www.w3.org/1999/02/22-rdf-syntax-ns#"
   xmlns:svg="http://www.w3.org/2000/svg"
   xmlns="http://www.w3.org/2000/svg"
   xmlns:xlink="http://www.w3.org/1999/xlink"
   xmlns:sodipodi="http://sodipodi.sourceforge.net/DTD/sodipodi-0.dtd"
   xmlns:inkscape="http://www.inkscape.org/namespaces/inkscape"
   width="253.90585"
   height="374.32501"
   id="svg2441"
   sodipodi:version="0.32"
   inkscape:version="0.46"
   version="1.0"
   sodipodi:docname="Devil.svg"
   inkscape:output_extension="org.inkscape.output.svg.inkscape"
   inkscape:export-filename="D:\Dokumenter\OpenDungeons\Devil.png"
   inkscape:export-xdpi="87"
   inkscape:export-ydpi="87">
  <defs
     id="defs3">
    <linearGradient
       id="linearGradient3296">
      <stop
         style="stop-color:#ff0000;stop-opacity:1;"
         offset="0"
         id="stop3302" />
      <stop
         id="stop3308"
         offset="0.61538464"
         style="stop-color:#df0000;stop-opacity:1;" />
      <stop
         id="stop3304"
         offset="1"
         style="stop-color:#770000;stop-opacity:1;" />
    </linearGradient>
    <linearGradient
       id="linearGradient3742">
      <stop
         style="stop-color:#c00000;stop-opacity:1;"
         offset="0"
         id="stop3744" />
      <stop
         id="stop3801"
         offset="0.30000001"
         style="stop-color:#c00000;stop-opacity:1;" />
      <stop
         id="stop3750"
         offset="0.66000003"
         style="stop-color:#ff0000;stop-opacity:1;" />
      <stop
         style="stop-color:#c00000;stop-opacity:1;"
         offset="1"
         id="stop3746" />
    </linearGradient>
    <linearGradient
       id="linearGradient3232">
      <stop
         style="stop-color:#ffffff;stop-opacity:1;"
         offset="0"
         id="stop3234" />
      <stop
         id="stop3272"
         offset="0.5"
         style="stop-color:#ffffff;stop-opacity:1;" />
      <stop
         style="stop-color:#d6d6d6;stop-opacity:1;"
         offset="1"
         id="stop3236" />
    </linearGradient>
    <inkscape:perspective
       sodipodi:type="inkscape:persp3d"
       inkscape:vp_x="0 : 526.18109 : 1"
       inkscape:vp_y="0 : 1000 : 0"
       inkscape:vp_z="744.09448 : 526.18109 : 1"
       inkscape:persp3d-origin="372.04724 : 350.78739 : 1"
       id="perspective2447" />
    <radialGradient
       inkscape:collect="always"
       xlink:href="#linearGradient3232"
       id="radialGradient3273"
       gradientUnits="userSpaceOnUse"
       gradientTransform="matrix(0,1,1.0723253,0,-173.97507,-82.177786)"
       cx="227.52313"
       cy="514.88318"
       fx="227.52313"
       fy="514.88318"
       r="20.985769" />
    <radialGradient
       inkscape:collect="always"
       xlink:href="#linearGradient3232"
       id="radialGradient3289"
       gradientUnits="userSpaceOnUse"
       gradientTransform="matrix(0,1,-1.0723253,0,1138.1827,-82.177789)"
       cx="227.52313"
       cy="514.88318"
       fx="227.52313"
       fy="514.88318"
       r="20.985769" />
    <radialGradient
       inkscape:collect="always"
       xlink:href="#linearGradient3742"
       id="radialGradient3292"
       gradientUnits="userSpaceOnUse"
       gradientTransform="matrix(0,1.584713,-1.5743073,0,1456.1035,-240.20519)"
       cx="270.26486"
       cy="618.88531"
       fx="270.26486"
       fy="618.88531"
       r="80.640625" />
    <radialGradient
       inkscape:collect="always"
       xlink:href="#linearGradient3296"
       id="radialGradient3310"
       gradientUnits="userSpaceOnUse"
       gradientTransform="matrix(1,0,0,1.1566803,-3.4338752,-107.30676)"
       cx="485.89334"
       cy="405.44244"
       fx="485.89334"
       fy="405.44244"
       r="57.441807" />
  </defs>
  <sodipodi:namedview
     inkscape:document-units="mm"
     id="base"
     pagecolor="#ffffff"
     bordercolor="#666666"
     borderopacity="1.0"
     inkscape:pageopacity="0.0"
     inkscape:pageshadow="2"
     inkscape:zoom="1.7177586"
     inkscape:cx="126.95293"
     inkscape:cy="187.16251"
     inkscape:current-layer="layer1"
     showgrid="false"
     units="mm"
     inkscape:window-width="1440"
     inkscape:window-height="850"
     inkscape:window-x="-8"
     inkscape:window-y="-8" />
  <metadata
     id="metadata4">
    <rdf:RDF>
      <cc:Work
         rdf:about="">
        <dc:format>image/svg+xml</dc:format>
        <dc:type
           rdf:resource="http://purl.org/dc/dcmitype/StillImage" />
      </cc:Work>
    </rdf:RDF>
  </metadata>
  <g
     inkscape:label="Layer 1"
     inkscape:groupmode="layer"
     id="layer1"
     transform="translate(-354.83488,-120.85341)">
    <path
       style="fill:none;fill-rule:evenodd;stroke:#000000;stroke-width:1px;stroke-linecap:butt;stroke-linejoin:miter;stroke-opacity:1"
       d="M 138.55265,304.46653 C 138.17451,306.13228 135.64188,309.89439 135.64188,312.61669 C 135.64188,316.09853 134.32962,316.98768 133.31326,319.02038 C 132.08245,321.482 131.56825,322.51185 129.82034,324.25977 C 128.07561,326.00449 126.32553,326.58886 123.9988,327.17054 C 121.90611,327.69371 119.01813,328.41571 117.01295,328.917 C 114.47438,329.55165 110.91283,328.917 108.28064,328.917 C 104.93103,328.917 100.16933,325.15242 98.384023,324.25977 C 95.486176,322.81085 93.40284,321.18702 91.398176,320.18469 C 88.603157,318.78718 85.735769,316.95666 83.830174,315.52746 C 81.537521,313.80797 80.674158,312.37144 79.172942,310.87023 C 77.445434,309.14272 74.142677,306.87993 72.769248,305.04869 C 70.872497,302.51969 67.073785,300.51753 65.201246,298.64499 C 63.764723,297.20847 60.040812,296.89853 57.633244,296.89853 C 54.39362,296.89853 52.407111,298.92945 50.647397,299.8093 C 49.085849,300.59008 47.659427,304.76352 46.572319,306.213 C 45.188532,308.05804 44.143725,310.10583 43.661549,312.03454 C 42.914786,315.02159 41.915087,315.87238 41.915087,319.60254 C 41.915087,322.8316 41.332933,325.07984 41.332933,327.75269 C 41.332933,330.45745 40.712826,333.14389 40.168625,335.3207 C 39.315181,338.73447 40.074657,341.11874 42.497241,341.72439 C 44.983694,342.346 47.39048,340.151 48.900935,339.39577 C 51.134244,338.27912 52.555722,337.56838 54.722475,336.485 C 56.662988,335.51475 52.781961,340.36603 51.811705,342.30654 C 50.794437,344.34108 49.902836,346.12428 48.900935,348.12808 C 47.791535,350.34688 46.821306,351.95417 45.408011,353.36747 C 43.952626,354.82285 43.370472,357.15147 41.915087,358.60685 C 40.595391,359.92655 39.586471,363.54562 39.586471,365.5927 C 39.586471,366.56317 35.928627,361.93486 35.511393,361.51762 C 33.683929,359.69016 32.866433,357.39201 32.018469,355.69608 C 31.18044,354.02003 28.59498,352.2726 27.361237,351.03885 C 26.124585,349.8022 23.681876,348.32594 22.121851,347.54593 C 19.973231,346.47162 18.95044,344.69603 18.046774,342.8887 C 16.425152,339.64545 18.23261,340.8047 21.539697,339.97793 C 24.859682,339.14793 25.906611,341.14224 29.107699,341.14224 C 32.375774,341.14224 33.412181,341.60104 31.436315,337.64931 C 30.198671,335.17402 32.082359,331.11784 32.600623,330.08131 C 33.65637,327.96982 33.764931,325.81946 33.764931,322.51331 C 33.764931,320.77762 35.111946,317.12525 35.511393,315.52746 C 36.137653,313.02242 37.302038,310.69349 37.840009,308.54161 C 38.565278,305.64054 39.725365,304.18875 40.750779,302.13792 C 42.12373,299.39202 42.903446,298.41474 44.243703,295.73422 C 45.664417,292.8928 48.113342,291.08553 51.229551,288.74838 C 53.215474,287.25893 55.055563,286.83537 57.051091,285.83761 C 59.159556,284.78337 64.941029,285.91809 66.947708,286.41976 C 70.677213,287.35214 74.676588,291.9809 75.680018,293.98776 C 76.575461,295.77865 78.973435,297.86333 80.33725,299.22715 C 82.115891,301.00579 83.495291,301.80304 84.994482,303.30223 C 86.935151,305.2429 88.647793,305.79123 90.233868,307.3773 C 92.012074,309.15551 94.67198,309.01421 97.219715,310.28807 C 100.23194,311.79419 100.90685,313.19884 104.78772,313.19884 C 108.32658,313.19884 110.30656,312.4071 112.35572,310.87023 C 114.06337,309.58949 112.35572,306.6011 112.35572,304.46653"
       id="path3455"
       transform="translate(354.83488,120.85341)" />
    <g
       id="g3429"
       transform="matrix(-1,0,0,1,958.20066,-14.095034)">
      <path
         style="fill:none;fill-rule:evenodd;stroke:#000000;stroke-width:1px;stroke-linecap:butt;stroke-linejoin:miter;stroke-opacity:1"
         d="M 449.39852,322.21016 C 447.41689,323.30008 442.61981,324.25758 439.52163,325.03213 C 436.10484,325.88632 432.99334,325.73762 429.64474,325.73762 C 426.59112,325.73762 423.21944,327.34394 421.17883,327.8541 C 418.54697,328.51206 416.35405,330.26649 414.12391,331.38156 C 411.34105,332.77298 409.54006,333.84893 407.77448,335.61451 C 406.33408,337.05491 402.50877,338.24737 400.71956,339.14197 C 397.98989,340.50681 396.10579,341.63926 394.37013,343.37492 C 392.14311,345.60194 390.30496,345.15584 388.72619,348.31337 C 387.50308,350.7596 390.92024,354.81794 391.54816,356.07378 C 392.75563,358.48873 394.40133,360.43153 395.07562,363.1287 C 395.85869,366.26099 397.64009,367.80965 399.30857,369.47813 C 401.09145,371.26101 402.30697,374.4168 402.83604,376.53306 C 403.12118,377.67364 403.94727,378.86152 404.24702,380.06052"
         id="path3431" />
      <path
         style="fill:none;fill-rule:evenodd;stroke:#000000;stroke-width:1px;stroke-linecap:butt;stroke-linejoin:miter;stroke-opacity:1"
         d="M 447.98754,337.73099 C 448.10413,338.19735 440.62636,340.80589 438.81614,341.25845 C 435.97063,341.96982 434.02859,343.3372 431.05572,344.08042 C 428.4773,344.72502 425.30366,346.6037 423.29531,347.60788 C 421.07183,348.71961 415.26437,347.60788 412.71293,347.60788 C 407.97632,347.60788 406.61746,347.29752 405.658,351.13534 C 405.34898,352.37145 407.91332,356.62914 408.47997,358.89575 C 409.19064,361.7384 410.78292,363.50165 412.00743,365.95067 C 413.84248,369.62076 412.38317,369.14838 414.8294,371.59461 C 415.80078,372.56598 416.23413,372.53109 416.94588,373.00559"
         id="path3433" />
      <path
         style="fill:none;fill-rule:evenodd;stroke:#000000;stroke-width:1px;stroke-linecap:butt;stroke-linejoin:miter;stroke-opacity:1"
         d="M 403.54153,380.06052 C 404.98448,381.50347 401.42505,385.77484 401.42505,389.23191 C 401.42505,393.74238 403.01701,394.15197 402.13054,397.69782"
         id="path3435" />
      <path
         style="fill:none;fill-rule:evenodd;stroke:#000000;stroke-width:1px;stroke-linecap:butt;stroke-linejoin:miter;stroke-opacity:1"
         d="M 416.94588,373.00559 C 415.86992,377.30944 432.40793,373.12314 428.93925,380.06052 C 428.70917,380.52067 432.91575,385.89705 433.1722,386.40995"
         id="path3437" />
      <path
         style="fill:none;fill-rule:evenodd;stroke:#000000;stroke-width:1px;stroke-linecap:butt;stroke-linejoin:miter;stroke-opacity:1"
         d="M 412.00743,387.11544 C 412.43778,387.97614 412.07919,393.04639 412.71293,395.58134"
         id="path3439" />
      <path
         style="fill:none;fill-rule:evenodd;stroke:#000000;stroke-width:1px;stroke-linecap:butt;stroke-linejoin:miter;stroke-opacity:1"
         d="M 417.65137,384.29347 C 418.3571,385.70493 422.84097,389.02873 424.0008,391.34839"
         id="path3441" />
      <path
         style="fill:none;fill-rule:evenodd;stroke:#000000;stroke-width:1px;stroke-linecap:butt;stroke-linejoin:miter;stroke-opacity:1"
         d="M 401.42505,401.93077 C 402.62416,404.32899 403.96528,396.78045 406.3635,395.58134 C 409.36215,394.08202 414.21328,396.33152 415.5349,396.99233 C 419.48609,398.96793 417.94903,402.04095 416.94588,404.04725 C 415.59679,406.74544 413.35412,407.57471 409.89096,407.57471 C 406.90097,407.57471 402.78725,405.33626 401.42505,401.93077 z"
         id="path3443" />
      <path
         style="fill:none;fill-rule:evenodd;stroke:#000000;stroke-width:1px;stroke-linecap:butt;stroke-linejoin:miter;stroke-opacity:1"
         d="M 416.24039,393.46487 C 412.27466,393.46487 414.75979,401.79155 415.5349,403.34176 C 417.53141,407.33479 422.2454,401.91413 422.58982,401.22528 C 424.20475,397.99541 424.85204,396.16434 424.0008,392.75938 C 423.37082,390.23946 418.78742,392.95546 416.24039,393.46487 z"
         id="path3445" />
      <path
         style="fill:none;fill-rule:evenodd;stroke:#000000;stroke-width:1px;stroke-linecap:butt;stroke-linejoin:miter;stroke-opacity:1"
         d="M 433.1722,382.88249 C 432.69641,380.97934 426.40181,384.71443 424.70629,386.40995 C 422.04364,389.0726 426.37917,394.43226 426.82277,394.87585 C 429.78191,397.83499 432.54203,395.50602 433.87769,394.17036 C 436.33811,391.70994 436.79561,390.32121 435.99417,387.11544 C 435.58288,385.47028 434.11286,384.29347 433.1722,382.88249 z"
         id="path3447" />
      <path
         style="fill:none;fill-rule:evenodd;stroke:#000000;stroke-width:1px;stroke-linecap:butt;stroke-linejoin:miter;stroke-opacity:1"
         d="M 433.1722,387.11544 C 432.35557,383.84893 436.58853,393.02033 437.40515,396.28684 C 438.02642,398.77192 435.37093,403.01274 435.28868,403.34176 C 434.62109,406.0121 433.69767,398.04328 432.46671,395.58134 C 431.53774,393.7234 427.3288,391.85442 426.11728,390.6429 C 424.94453,389.47015 432.67113,387.21565 433.1722,387.11544 z"
         id="path3449" />
      <path
         style="fill:none;fill-rule:evenodd;stroke:#000000;stroke-width:1px;stroke-linecap:butt;stroke-linejoin:miter;stroke-opacity:1"
         d="M 416.24039,399.8143 C 413.93027,397.50418 420.38647,405.11074 421.17883,408.2802 C 422.2962,412.74969 425.41179,407.50601 425.41179,404.75274 C 425.41179,401.33686 423.29531,400.78621 423.29531,396.28684 C 423.29531,393.65762 417.21685,397.37313 416.24039,399.8143 z"
         id="path3451" />
      <path
         style="fill:none;fill-rule:evenodd;stroke:#000000;stroke-width:1px;stroke-linecap:butt;stroke-linejoin:miter;stroke-opacity:1"
         d="M 405.658,401.93077 C 405.658,398.7322 409.04021,407.42945 411.30194,409.69119 C 414.84593,413.23517 414.98629,412.08197 416.94588,411.10217 C 417.43926,410.85548 414.82235,406.14962 414.12391,404.75274 C 412.46009,401.4251 412.47149,400.75182 409.18547,399.10881 C 407.83865,398.4354 406.83382,400.99012 405.658,401.93077 z"
         id="path3453" />
    </g>
    <g
       id="g3415"
       transform="translate(4.0750779,-13.971696)">
      <path
         id="path3390"
         d="M 449.39852,322.21016 C 447.41689,323.30008 442.61981,324.25758 439.52163,325.03213 C 436.10484,325.88632 432.99334,325.73762 429.64474,325.73762 C 426.59112,325.73762 423.21944,327.34394 421.17883,327.8541 C 418.54697,328.51206 416.35405,330.26649 414.12391,331.38156 C 411.34105,332.77298 409.54006,333.84893 407.77448,335.61451 C 406.33408,337.05491 402.50877,338.24737 400.71956,339.14197 C 397.98989,340.50681 396.10579,341.63926 394.37013,343.37492 C 392.14311,345.60194 390.30496,345.15584 388.72619,348.31337 C 387.50308,350.7596 390.92024,354.81794 391.54816,356.07378 C 392.75563,358.48873 394.40133,360.43153 395.07562,363.1287 C 395.85869,366.26099 397.64009,367.80965 399.30857,369.47813 C 401.09145,371.26101 402.30697,374.4168 402.83604,376.53306 C 403.12118,377.67364 403.94727,378.86152 404.24702,380.06052"
         style="fill:none;fill-rule:evenodd;stroke:#000000;stroke-width:1px;stroke-linecap:butt;stroke-linejoin:miter;stroke-opacity:1" />
      <path
         id="path3393"
         d="M 447.98754,337.73099 C 448.10413,338.19735 440.62636,340.80589 438.81614,341.25845 C 435.97063,341.96982 434.02859,343.3372 431.05572,344.08042 C 428.4773,344.72502 425.30366,346.6037 423.29531,347.60788 C 421.07183,348.71961 415.26437,347.60788 412.71293,347.60788 C 407.97632,347.60788 406.61746,347.29752 405.658,351.13534 C 405.34898,352.37145 407.91332,356.62914 408.47997,358.89575 C 409.19064,361.7384 410.78292,363.50165 412.00743,365.95067 C 413.84248,369.62076 412.38317,369.14838 414.8294,371.59461 C 415.80078,372.56598 416.23413,372.53109 416.94588,373.00559"
         style="fill:none;fill-rule:evenodd;stroke:#000000;stroke-width:1px;stroke-linecap:butt;stroke-linejoin:miter;stroke-opacity:1" />
      <path
         id="path3395"
         d="M 403.54153,380.06052 C 404.98448,381.50347 401.42505,385.77484 401.42505,389.23191 C 401.42505,393.74238 403.01701,394.15197 402.13054,397.69782"
         style="fill:none;fill-rule:evenodd;stroke:#000000;stroke-width:1px;stroke-linecap:butt;stroke-linejoin:miter;stroke-opacity:1" />
      <path
         id="path3397"
         d="M 416.94588,373.00559 C 415.86992,377.30944 432.40793,373.12314 428.93925,380.06052 C 428.70917,380.52067 432.91575,385.89705 433.1722,386.40995"
         style="fill:none;fill-rule:evenodd;stroke:#000000;stroke-width:1px;stroke-linecap:butt;stroke-linejoin:miter;stroke-opacity:1" />
      <path
         id="path3399"
         d="M 412.00743,387.11544 C 412.43778,387.97614 412.07919,393.04639 412.71293,395.58134"
         style="fill:none;fill-rule:evenodd;stroke:#000000;stroke-width:1px;stroke-linecap:butt;stroke-linejoin:miter;stroke-opacity:1" />
      <path
         id="path3401"
         d="M 417.65137,384.29347 C 418.3571,385.70493 422.84097,389.02873 424.0008,391.34839"
         style="fill:none;fill-rule:evenodd;stroke:#000000;stroke-width:1px;stroke-linecap:butt;stroke-linejoin:miter;stroke-opacity:1" />
      <path
         id="path3403"
         d="M 401.42505,401.93077 C 402.62416,404.32899 403.96528,396.78045 406.3635,395.58134 C 409.36215,394.08202 414.21328,396.33152 415.5349,396.99233 C 419.48609,398.96793 417.94903,402.04095 416.94588,404.04725 C 415.59679,406.74544 413.35412,407.57471 409.89096,407.57471 C 406.90097,407.57471 402.78725,405.33626 401.42505,401.93077 z"
         style="fill:none;fill-rule:evenodd;stroke:#000000;stroke-width:1px;stroke-linecap:butt;stroke-linejoin:miter;stroke-opacity:1" />
      <path
         id="path3405"
         d="M 416.24039,393.46487 C 412.27466,393.46487 414.75979,401.79155 415.5349,403.34176 C 417.53141,407.33479 422.2454,401.91413 422.58982,401.22528 C 424.20475,397.99541 424.85204,396.16434 424.0008,392.75938 C 423.37082,390.23946 418.78742,392.95546 416.24039,393.46487 z"
         style="fill:none;fill-rule:evenodd;stroke:#000000;stroke-width:1px;stroke-linecap:butt;stroke-linejoin:miter;stroke-opacity:1" />
      <path
         id="path3407"
         d="M 433.1722,382.88249 C 432.69641,380.97934 426.40181,384.71443 424.70629,386.40995 C 422.04364,389.0726 426.37917,394.43226 426.82277,394.87585 C 429.78191,397.83499 432.54203,395.50602 433.87769,394.17036 C 436.33811,391.70994 436.79561,390.32121 435.99417,387.11544 C 435.58288,385.47028 434.11286,384.29347 433.1722,382.88249 z"
         style="fill:none;fill-rule:evenodd;stroke:#000000;stroke-width:1px;stroke-linecap:butt;stroke-linejoin:miter;stroke-opacity:1" />
      <path
         id="path3409"
         d="M 433.1722,387.11544 C 432.35557,383.84893 436.58853,393.02033 437.40515,396.28684 C 438.02642,398.77192 435.37093,403.01274 435.28868,403.34176 C 434.62109,406.0121 433.69767,398.04328 432.46671,395.58134 C 431.53774,393.7234 427.3288,391.85442 426.11728,390.6429 C 424.94453,389.47015 432.67113,387.21565 433.1722,387.11544 z"
         style="fill:none;fill-rule:evenodd;stroke:#000000;stroke-width:1px;stroke-linecap:butt;stroke-linejoin:miter;stroke-opacity:1" />
      <path
         id="path3411"
         d="M 416.24039,399.8143 C 413.93027,397.50418 420.38647,405.11074 421.17883,408.2802 C 422.2962,412.74969 425.41179,407.50601 425.41179,404.75274 C 425.41179,401.33686 423.29531,400.78621 423.29531,396.28684 C 423.29531,393.65762 417.21685,397.37313 416.24039,399.8143 z"
         style="fill:none;fill-rule:evenodd;stroke:#000000;stroke-width:1px;stroke-linecap:butt;stroke-linejoin:miter;stroke-opacity:1" />
      <path
         id="path3413"
         d="M 405.658,401.93077 C 405.658,398.7322 409.04021,407.42945 411.30194,409.69119 C 414.84593,413.23517 414.98629,412.08197 416.94588,411.10217 C 417.43926,410.85548 414.82235,406.14962 414.12391,404.75274 C 412.46009,401.4251 412.47149,400.75182 409.18547,399.10881 C 407.83865,398.4354 406.83382,400.99012 405.658,401.93077 z"
         style="fill:none;fill-rule:evenodd;stroke:#000000;stroke-width:1px;stroke-linecap:butt;stroke-linejoin:miter;stroke-opacity:1" />
    </g>
    <g
       id="g3368"
       transform="matrix(0.998599,-5.2915717e-2,5.2915717e-2,0.998599,-35.743331,26.837735)">
      <path
         style="fill:none;fill-rule:evenodd;stroke:#000000;stroke-width:1px;stroke-linecap:butt;stroke-linejoin:miter;stroke-opacity:1"
         d="M 522.79399,405.44656 C 525.49493,405.17619 529.21052,408.65483 531.3493,409.72422 C 534.69053,411.39483 535.96141,411.48456 538.47873,414.00188 C 540.16022,415.68337 542.49902,418.02217 544.18228,419.70542 C 545.19554,420.71869 544.89522,428.12869 544.89522,429.68663 C 544.89522,432.45383 545.60816,436.41663 545.60816,439.66783 C 545.60816,442.14739 546.4772,446.70871 547.03405,448.93609 C 548.23387,453.73537 546.47946,454.79798 549.17288,457.4914 C 551.35111,459.66964 552.32747,461.35894 554.16348,463.19495 C 555.94583,464.9773 558.08466,466.40319 559.86702,468.18555 C 562.33535,470.65388 559.75247,475.54407 559.15408,476.74086 C 558.02121,479.00661 554.91024,480.47536 552.73759,481.01852 C 549.32524,481.87161 546.76624,481.59756 544.18228,480.30558 C 541.19887,478.81388 544.89522,473.65992 544.89522,470.32438 C 544.89522,467.42114 549.2013,465.86138 551.31171,465.33377 C 552.98522,464.91539 555.72189,466.25809 557.72819,466.75966"
         id="path3350" />
      <path
         style="fill:none;fill-rule:evenodd;stroke:#000000;stroke-width:1px;stroke-linecap:butt;stroke-linejoin:miter;stroke-opacity:1"
         d="M 540.61756,466.04672 C 543.19918,465.40131 543.46933,473.57187 543.46933,476.74086 C 543.46933,478.21877 539.2354,481.68773 538.47873,482.44441 C 536.21275,484.71039 531.46384,483.87029 527.78459,483.87029 C 525.06516,483.87029 524.72507,478.76167 524.21987,476.74086 C 523.57205,474.14959 526.9051,471.37041 527.78459,469.61143 C 528.51869,468.14323 533.71001,467.2389 535.62696,466.75966 C 538.41329,466.06308 535.0891,466.04672 540.61756,466.04672 z"
         id="path3352" />
      <path
         style="fill:none;fill-rule:evenodd;stroke:#000000;stroke-width:1px;stroke-linecap:butt;stroke-linejoin:miter;stroke-opacity:1"
         d="M 518.51633,468.18555 C 519.20054,468.01449 524.93281,468.20304 524.93281,475.31498 C 524.93281,480.30428 523.6836,480.1289 521.3681,482.44441 C 518.98918,484.82333 517.0171,484.58324 512.81278,484.58324 C 508.6684,484.58324 508.53513,482.24161 508.53513,478.16675 C 508.53513,475.93684 511.28312,471.95782 512.09984,470.32438 C 513.00455,468.51496 516.43346,468.60212 518.51633,468.18555 z"
         id="path3354" />
      <path
         style="fill:none;fill-rule:evenodd;stroke:#000000;stroke-width:1px;stroke-linecap:butt;stroke-linejoin:miter;stroke-opacity:1"
         d="M 558.44114,470.32438 C 558.53693,470.13278 562.00585,477.24392 562.00585,480.30558 C 562.00585,484.66915 561.39727,486.3046 560.57996,489.57384 C 559.36288,494.44218 556.95409,488.02563 556.30231,486.72206 C 555.21649,484.55043 551.27227,483.11792 549.88582,481.73146 C 547.95977,479.80541 545.37058,478.40413 546.3211,474.60203 C 547.42909,470.17009 547.58047,470.72248 552.02465,469.61143 C 553.79136,469.16976 557.05367,470.04688 558.44114,470.32438 z"
         id="path3356" />
      <path
         style="fill:none;fill-rule:evenodd;stroke:#000000;stroke-width:1px;stroke-linecap:butt;stroke-linejoin:miter;stroke-opacity:1"
         d="M 539.90462,471.75026 C 542.49349,471.10304 542.04345,479.52307 542.04345,482.44441 C 542.04345,485.9103 540.67112,487.93373 539.90462,490.99972 C 538.85122,495.21331 536.91134,494.28143 535.62696,491.71266 C 534.46026,489.37927 531.84348,488.42337 530.63636,486.00912 C 529.11538,482.96717 528.49753,481.81255 528.49753,477.45381 C 528.49753,473.92532 531.00639,472.80612 532.77519,471.03732 C 534.46399,469.34851 537.56267,471.28187 539.90462,471.75026 z"
         id="path3358" />
      <path
         style="fill:none;fill-rule:evenodd;stroke:#000000;stroke-width:1px;stroke-linecap:butt;stroke-linejoin:miter;stroke-opacity:1"
         d="M 512.81278,478.16675 C 514.99733,475.9822 512.06349,484.43783 512.81278,487.43501 C 513.27748,489.29378 514.30976,491.07081 515.66456,492.42561 C 516.48919,493.25025 519.15368,485.44735 519.22927,485.29618 C 520.85006,482.05459 520.52598,480.43475 522.79399,478.16675 C 523.3097,477.65103 517.2566,472.62936 517.09044,472.4632 C 513.12705,468.49982 512.55891,476.89738 512.81278,478.16675 z"
         id="path3360" />
      <path
         style="fill:none;fill-rule:evenodd;stroke:#000000;stroke-width:1px;stroke-linecap:butt;stroke-linejoin:miter;stroke-opacity:1"
         d="M 513.52573,416.14071 C 511.2401,413.85509 519.08248,419.55863 521.3681,421.84425 C 522.94477,423.42092 522.79399,429.03615 522.79399,431.11251 C 522.79399,435.10693 523.55162,437.70775 524.21987,440.38077 C 525.07137,443.78676 525.08976,446.39819 526.3587,448.93609 C 528.06227,452.34323 524.94793,456.03528 524.21987,457.4914 C 523.0181,459.89495 520.78363,461.64059 519.22927,463.19495 C 516.99917,465.42505 515.81634,465.74315 514.23867,468.89849 C 513.45049,470.47485 513.79619,469.11973 512.81278,469.61143"
         id="path3362" />
      <path
         style="fill:none;fill-rule:evenodd;stroke:#000000;stroke-width:1px;stroke-linecap:butt;stroke-linejoin:miter;stroke-opacity:1"
         d="M 526.3587,469.61143 C 524.88222,472.56439 529.87282,464.00907 531.3493,461.05612"
         id="path3364" />
      <path
         style="fill:none;fill-rule:evenodd;stroke:#000000;stroke-width:1px;stroke-linecap:butt;stroke-linejoin:miter;stroke-opacity:1"
         d="M 544.18228,468.18555 C 542.75639,471.03732 542.15914,461.88475 539.90462,459.63023"
         id="path3366" />
    </g>
    <g
       id="g3379"
       transform="matrix(0.9969505,-7.8036168e-2,7.8036168e-2,0.9969505,-11.217607,35.263215)">
      <path
         id="path3332"
         d="M 437.74699,405.44656 C 435.04605,405.17619 431.33046,408.65483 429.19168,409.72422 C 425.85045,411.39483 424.57957,411.48456 422.06225,414.00188 C 420.38076,415.68337 418.04196,418.02217 416.3587,419.70542 C 415.34544,420.71869 415.64576,428.12869 415.64576,429.68663 C 415.64576,432.45383 414.93282,436.41663 414.93282,439.66783 C 414.93282,442.14739 414.06378,446.70871 413.50693,448.93609 C 412.30711,453.73537 414.06152,454.79798 411.3681,457.4914 C 409.18987,459.66964 408.21351,461.35894 406.3775,463.19495 C 404.59515,464.9773 402.45632,466.40319 400.67396,468.18555 C 398.20563,470.65388 400.78851,475.54407 401.3869,476.74086 C 402.51977,479.00661 405.63074,480.47536 407.80339,481.01852 C 411.21574,481.87161 413.77474,481.59756 416.3587,480.30558 C 419.34211,478.81388 415.64576,473.65992 415.64576,470.32438 C 415.64576,467.42114 411.33968,465.86138 409.22927,465.33377 C 407.55576,464.91539 404.81909,466.25809 402.81279,466.75966"
         style="fill:none;fill-rule:evenodd;stroke:#000000;stroke-width:1px;stroke-linecap:butt;stroke-linejoin:miter;stroke-opacity:1" />
      <path
         id="path3334"
         d="M 419.92342,466.04672 C 417.3418,465.40131 417.07165,473.57187 417.07165,476.74086 C 417.07165,478.21877 421.30558,481.68773 422.06225,482.44441 C 424.32823,484.71039 429.07714,483.87029 432.75639,483.87029 C 435.47582,483.87029 435.81591,478.76167 436.32111,476.74086 C 436.96893,474.14959 433.63588,471.37041 432.75639,469.61143 C 432.02229,468.14323 426.83097,467.2389 424.91402,466.75966 C 422.12769,466.06308 425.45188,466.04672 419.92342,466.04672 z"
         style="fill:none;fill-rule:evenodd;stroke:#000000;stroke-width:1px;stroke-linecap:butt;stroke-linejoin:miter;stroke-opacity:1" />
      <path
         id="path3336"
         d="M 442.02465,468.18555 C 441.34044,468.01449 435.60817,468.20304 435.60817,475.31498 C 435.60817,480.30428 436.85738,480.1289 439.17288,482.44441 C 441.5518,484.82333 443.52388,484.58324 447.7282,484.58324 C 451.87258,484.58324 452.00585,482.24161 452.00585,478.16675 C 452.00585,475.93684 449.25786,471.95782 448.44114,470.32438 C 447.53643,468.51496 444.10752,468.60212 442.02465,468.18555 z"
         style="fill:none;fill-rule:evenodd;stroke:#000000;stroke-width:1px;stroke-linecap:butt;stroke-linejoin:miter;stroke-opacity:1" />
      <path
         id="path3338"
         d="M 402.09984,470.32438 C 402.00405,470.13278 398.53513,477.24392 398.53513,480.30558 C 398.53513,484.66915 399.14371,486.3046 399.96102,489.57384 C 401.1781,494.44218 403.58689,488.02563 404.23867,486.72206 C 405.32449,484.55043 409.26871,483.11792 410.65516,481.73146 C 412.58121,479.80541 415.1704,478.40413 414.21988,474.60203 C 413.11189,470.17009 412.96051,470.72248 408.51633,469.61143 C 406.74962,469.16976 403.48731,470.04688 402.09984,470.32438 z"
         style="fill:none;fill-rule:evenodd;stroke:#000000;stroke-width:1px;stroke-linecap:butt;stroke-linejoin:miter;stroke-opacity:1" />
      <path
         id="path3340"
         d="M 420.63636,471.75026 C 418.04749,471.10304 418.49753,479.52307 418.49753,482.44441 C 418.49753,485.9103 419.86986,487.93373 420.63636,490.99972 C 421.68976,495.21331 423.62964,494.28143 424.91402,491.71266 C 426.08072,489.37927 428.6975,488.42337 429.90462,486.00912 C 431.4256,482.96717 432.04345,481.81255 432.04345,477.45381 C 432.04345,473.92532 429.53459,472.80612 427.76579,471.03732 C 426.07699,469.34851 422.97831,471.28187 420.63636,471.75026 z"
         style="fill:none;fill-rule:evenodd;stroke:#000000;stroke-width:1px;stroke-linecap:butt;stroke-linejoin:miter;stroke-opacity:1" />
      <path
         id="path3342"
         d="M 447.7282,478.16675 C 445.54365,475.9822 448.47749,484.43783 447.7282,487.43501 C 447.2635,489.29378 446.23122,491.07081 444.87642,492.42561 C 444.05179,493.25025 441.3873,485.44735 441.31171,485.29618 C 439.69092,482.05459 440.015,480.43475 437.74699,478.16675 C 437.23128,477.65103 443.28438,472.62936 443.45054,472.4632 C 447.41393,468.49982 447.98207,476.89738 447.7282,478.16675 z"
         style="fill:none;fill-rule:evenodd;stroke:#000000;stroke-width:1px;stroke-linecap:butt;stroke-linejoin:miter;stroke-opacity:1" />
      <path
         id="path3344"
         d="M 447.01525,416.14071 C 449.30088,413.85509 441.4585,419.55863 439.17288,421.84425 C 437.59621,423.42092 437.74699,429.03615 437.74699,431.11251 C 437.74699,435.10693 436.98936,437.70775 436.32111,440.38077 C 435.46961,443.78676 435.45122,446.39819 434.18228,448.93609 C 432.47871,452.34323 435.59305,456.03528 436.32111,457.4914 C 437.52288,459.89495 439.75735,461.64059 441.31171,463.19495 C 443.54181,465.42505 444.72464,465.74315 446.30231,468.89849 C 447.09049,470.47485 446.74479,469.11973 447.7282,469.61143"
         style="fill:none;fill-rule:evenodd;stroke:#000000;stroke-width:1px;stroke-linecap:butt;stroke-linejoin:miter;stroke-opacity:1" />
      <path
         id="path3346"
         d="M 434.18228,469.61143 C 435.65876,472.56439 430.66816,464.00907 429.19168,461.05612"
         style="fill:none;fill-rule:evenodd;stroke:#000000;stroke-width:1px;stroke-linecap:butt;stroke-linejoin:miter;stroke-opacity:1" />
      <path
         id="path3348"
         d="M 416.3587,468.18555 C 417.78459,471.03732 418.38184,461.88475 420.63636,459.63023"
         style="fill:none;fill-rule:evenodd;stroke:#000000;stroke-width:1px;stroke-linecap:butt;stroke-linejoin:miter;stroke-opacity:1" />
    </g>
    <path
       style="fill:url(#radialGradient3310);fill-opacity:1;stroke:#000000;stroke-width:4.99960613;stroke-linejoin:round;stroke-miterlimit:4;stroke-dasharray:none;stroke-opacity:1"
       d="M 537.40146,370.66055 C 537.40146,400.98853 512.78745,425.60255 482.45946,425.60255 C 452.13147,425.60255 427.51745,400.98853 427.51745,370.66055 C 427.51745,340.33256 452.13147,297.71854 482.45946,297.71854 C 512.78745,297.71854 537.40146,340.33256 537.40146,370.66055 z"
       id="path2497"
       sodipodi:nodetypes="csssc" />
    <path
       id="path3392"
       d="M 410.77218,157.1088 C 401.90332,165.49781 389.96552,170.64005 376.80343,170.64005 C 370.6137,170.64005 364.67298,169.49959 359.20968,167.4213 C 357.98718,174.41225 357.33468,181.61372 357.33468,188.95255 C 357.33467,257.64803 413.10797,313.39007 481.80343,313.39005 C 550.4989,313.39005 606.24094,257.61677 606.24093,188.9213 C 606.24093,181.84856 605.62818,174.91903 604.49093,168.1713 C 598.97658,170.29446 593.00047,171.4838 586.74093,171.4838 C 573.34417,171.48379 561.18609,166.13946 552.27218,157.4838 C 532.23793,171.28759 507.96354,179.39005 481.80343,179.39005 C 455.40985,179.39005 430.91769,171.13863 410.77218,157.1088 z"
       style="fill:url(#radialGradient3292);fill-opacity:1;stroke:#000000;stroke-width:4.99960613;stroke-miterlimit:4;stroke-dasharray:none;stroke-dashoffset:0;stroke-opacity:1;display:inline" />
    <path
       id="path3422"
       d="M 589.36516,124.05091 C 596.13298,134.32344 599.58809,144.85905 602.36544,156.76718 C 588.96069,162.10218 573.06057,159.8889 561.73473,150.92138 C 571.81319,142.82583 581.28871,133.26184 588.68878,123.04163 L 589.17606,123.76874 L 589.36516,124.05091 z"
       style="fill:url(#radialGradient3289);fill-opacity:1;stroke:#000000;stroke-width:4.37643147;stroke-miterlimit:4;stroke-dasharray:none;stroke-dashoffset:0;stroke-opacity:1;display:inline"
       sodipodi:nodetypes="cccccc" />
    <path
       id="path2476"
       d="M 572.68765,212.48987 C 515.84223,238.23101 447.44618,238.80122 390.53874,212.68477 C 403.61086,255.01524 448.78409,287.01558 493.6772,279.18296 C 529.86702,274.33609 563.35228,247.46929 573.46723,212.13906 L 572.68765,212.48987 z"
       style="fill:#ffffff;fill-opacity:1;stroke:#000000;stroke-width:6.23664141;stroke-linecap:round;stroke-miterlimit:4;stroke-dasharray:none;stroke-dashoffset:0;stroke-opacity:1;display:inline" />
    <path
       id="path2478"
       d="M 493.07829,212.80099 L 493.07829,200.90973 L 541.22897,173.10992 L 541.22897,208.6649 L 493.07829,212.80099 z"
       style="fill:#ffffff;fill-opacity:1;fill-rule:evenodd;stroke:#000000;stroke-width:6.23664141;stroke-linecap:butt;stroke-linejoin:miter;stroke-miterlimit:4;stroke-dasharray:none;stroke-opacity:1;display:inline" />
    <path
       id="path2480"
       d="M 498.3515,206.06714 L 520.06599,196.50243"
       style="fill:none;fill-rule:evenodd;stroke:#000000;stroke-width:6.23664141;stroke-linecap:butt;stroke-linejoin:miter;stroke-miterlimit:4;stroke-dasharray:none;stroke-opacity:1;display:inline" />
    <path
       sodipodi:nodetypes="cs"
       id="path2482"
       d="M 391.36805,213.37954 C 443.84472,273.61139 514.67532,273.8699 572.64524,213.70268"
       style="fill:none;fill-rule:evenodd;stroke:#000000;stroke-width:6.23664141;stroke-linecap:round;stroke-linejoin:miter;stroke-miterlimit:4;stroke-dasharray:none;stroke-opacity:1;display:inline" />
    <path
       id="path2484"
       d="M 481.17661,231.58611 L 481.17661,279.76512"
       style="fill:none;fill-rule:evenodd;stroke:#000000;stroke-width:6.23664141;stroke-linecap:round;stroke-linejoin:miter;stroke-miterlimit:4;stroke-dasharray:none;stroke-opacity:1;display:inline" />
    <path
       sodipodi:nodetypes="cc"
       id="path2486"
       d="M 510.84944,230.20957 L 510.84944,275.0661"
       style="fill:none;fill-rule:evenodd;stroke:#000000;stroke-width:6.23664141;stroke-linecap:round;stroke-linejoin:miter;stroke-miterlimit:4;stroke-dasharray:none;stroke-opacity:1;display:inline" />
    <path
       sodipodi:nodetypes="cc"
       id="path2488"
       d="M 531.49759,226.35524 L 531.49759,265.55857"
       style="fill:none;fill-rule:evenodd;stroke:#000000;stroke-width:6.23664141;stroke-linecap:round;stroke-linejoin:miter;stroke-miterlimit:4;stroke-dasharray:none;stroke-opacity:1;display:inline" />
    <path
       id="path2490"
       d="M 548.5836,222.77623 L 548.5836,250.86498"
       style="fill:none;fill-rule:evenodd;stroke:#000000;stroke-width:6.23664141;stroke-linecap:round;stroke-linejoin:miter;stroke-miterlimit:4;stroke-dasharray:none;stroke-opacity:1;display:inline"
       sodipodi:nodetypes="cc" />
    <path
       style="fill:#ffffff;fill-opacity:1;fill-rule:evenodd;stroke:#000000;stroke-width:6.23664141;stroke-linecap:butt;stroke-linejoin:miter;stroke-miterlimit:4;stroke-dasharray:none;stroke-opacity:1;display:inline"
       d="M 468.88393,212.80099 L 468.88393,200.90973 L 420.73325,173.10992 L 420.73325,208.6649 L 468.88393,212.80099 z"
       id="path2492" />
    <path
       style="fill:none;fill-rule:evenodd;stroke:#000000;stroke-width:6.23664141;stroke-linecap:butt;stroke-linejoin:miter;stroke-miterlimit:4;stroke-dasharray:none;stroke-opacity:1;display:inline"
       d="M 463.61072,206.06714 L 441.89623,196.50243"
       id="path2494" />
    <path
       style="fill:none;fill-rule:evenodd;stroke:#000000;stroke-width:6.23664141;stroke-linecap:round;stroke-linejoin:miter;stroke-miterlimit:4;stroke-dasharray:none;stroke-opacity:1;display:inline"
       d="M 450.39855,230.20957 L 450.39855,275.0661"
       id="path2496"
       sodipodi:nodetypes="cc" />
    <path
       style="fill:none;fill-rule:evenodd;stroke:#000000;stroke-width:6.23664141;stroke-linecap:round;stroke-linejoin:miter;stroke-miterlimit:4;stroke-dasharray:none;stroke-opacity:1;display:inline"
       d="M 429.7504,226.35524 L 429.7504,264.34313"
       id="path2498"
       sodipodi:nodetypes="cc" />
    <path
       sodipodi:nodetypes="cc"
       style="fill:none;fill-rule:evenodd;stroke:#000000;stroke-width:6.23664141;stroke-linecap:round;stroke-linejoin:miter;stroke-miterlimit:4;stroke-dasharray:none;stroke-opacity:1;display:inline"
       d="M 412.66438,222.77623 L 412.66438,248.60774"
       id="path2500" />
    <path
       sodipodi:nodetypes="cccccc"
       style="fill:url(#radialGradient3273);fill-opacity:1;stroke:#000000;stroke-width:4.37643147;stroke-miterlimit:4;stroke-dasharray:none;stroke-dashoffset:0;stroke-opacity:1;display:inline"
       d="M 374.84247,124.05091 C 368.07465,134.32344 364.61954,144.85905 361.84219,156.76718 C 375.24694,162.10218 391.14706,159.8889 402.4729,150.92138 C 392.39444,142.82583 382.91892,133.26184 375.51885,123.04163 L 375.03157,123.76874 L 374.84247,124.05091 z"
       id="path2529" />
  </g>
</svg>
