<?xml version="1.0" encoding="UTF-8" standalone="no"?>
<!-- Created with Inkscape (http://www.inkscape.org/) -->

<svg
   xmlns:svg="http://www.w3.org/2000/svg"
   xmlns="http://www.w3.org/2000/svg"
   version="1.1"
   width="373.53119"
   height="373.53116"
   id="svg4359">
  <defs
     id="defs4361" />
  <g
     transform="translate(-247.5201,-599.8823)"
     id="layer1">
    <g
       transform="translate(3607.2706,1535.1948)"
       id="g4276"
       style="display:inline">
      <path
         d="m -2986.4324,-752.80987 c -9.9442,15.74139 -22.9487,32.01101 -38.5,47.56249 -49.9104,49.91022 -104.2221,70.37852 -127.4375,51.37501 -20.7731,-17.00379 -50.5582,-18.47311 -70.125,1.09369 -10.1868,10.187 -14.6839,22.997 -14,35.6563 0,27.6803 -22.4448,50.12502 -50.1251,50.12502 -18.8429,-0.0351 -34.1249,-15.79812 -34.1249,-35.18751 0,-19.38951 15.4013,-33.40771 34.1249,-34.87499 16.7295,-1.31141 29.75,-35.2243 29.7501,-74.96882 0,-10.06349 -0.8184,-19.66398 -2.3438,-28.43738 2.3706,10.50369 3.6875,22.4684 3.6875,35.18739 0,40.81992 -13.8293,71.40261 -31.0937,73.125 -15.4483,1.5413 -28.25,13.12199 -28.25,29.125 0,16.05619 12.6477,27.4963 28.25,27.5313 22.9863,1e-5 37.625,-18.6387 37.625,-41.625 l 0.1875,-3e-5 c 0.4218,-15.08619 6.4359,-30.1861 18.0937,-41.84371 23.7074,-23.70787 59.6564,-22.00569 84.3437,-0.90627 22.0586,18.85158 79.467,-6.68581 128.0626,-55.28133 12.3045,-12.30468 23.0129,-25.06378 31.875,-37.65619 z"
         id="path4274"
         style="fill:#4d4d4d;fill-opacity:1;stroke:none;display:inline" />
      <path
         d="m -3359.75,-935.3125 c 12.5924,8.8621 25.3518,19.57049 37.6562,31.875 48.5953,48.59554 74.1329,106.00398 55.2813,128.0625 -21.0994,24.68735 -22.8016,60.63631 0.9063,84.34375 6.3098,6.31027 13.6323,10.95523 21.4062,13.96875 l 0,0.0312 c 0.021,0.008 0.041,0.023 0.062,0.0312 3.0142,7.74987 7.6133,15.05102 13.9063,21.34375 23.7073,23.70778 59.6564,22.03685 84.3437,0.9375 22.0585,-18.85162 79.4981,6.68588 128.0937,55.28125 12.3046,12.30468 23.013,25.06383 31.875,37.65625 -9.9439,-15.74139 -22.9798,-32.01097 -38.5312,-47.5625 -49.9103,-49.91022 -104.222,-70.37844 -127.4375,-51.375 -20.7731,17.00384 -50.5582,18.47304 -70.125,-1.09375 -3.6075,-3.60754 -6.4874,-7.54396 -8.6875,-11.6875 -0.2646,-0.49898 -0.5366,-0.99526 -0.7812,-1.5 0,-0.0101 0,-0.0212 0,-0.0312 0.044,-0.27587 0.069,-0.56627 0.094,-0.84375 9e-4,-0.0106 -9e-4,-0.0207 0,-0.0312 0.024,-0.27709 0.057,-0.534 0.062,-0.8125 2e-4,-0.0103 -10e-5,-0.0209 0,-0.0312 0,-0.27889 -0.018,-0.56365 -0.031,-0.84375 -6e-4,-0.0103 5e-4,-0.0209 0,-0.0312 -0.014,-0.28018 -0.031,-0.56255 -0.063,-0.84375 0,-0.0103 0,-0.021 0,-0.0312 0,-0.0437 -0.026,-0.0815 -0.031,-0.125 -0.054,-0.42409 -0.1262,-0.84124 -0.2188,-1.25 -0.056,-0.24086 -0.1185,-0.48326 -0.1874,-0.71875 -0.06,-0.20795 -0.1178,-0.42187 -0.1876,-0.625 -0.6209,-1.80952 -1.6202,-3.42211 -2.9062,-4.75 -0.01,-0.005 -0.026,0.005 -0.031,0 -1.7445,-1.79667 -3.9783,-3.04658 -6.4063,-3.59375 l 0,-0.0312 c -0.5468,-0.12321 -1.0934,-0.19999 -1.6563,-0.25 -0.514,-0.0457 -1.0394,-0.0488 -1.5624,-0.0312 -0.517,0.0173 -1.0409,0.044 -1.5626,0.125 -4.722,-2.28408 -9.2188,-5.43758 -13.2812,-9.5 -19.5668,-19.56679 -18.0664,-49.35194 -1.0625,-70.125 19.0034,-23.21549 -1.4958,-77.5271 -51.4063,-127.4375 -15.5515,-15.55134 -31.7899,-28.55579 -47.5312,-38.5 z"
         id="path4178"
         style="fill:#4d4d4d;fill-opacity:1;stroke:none;display:inline" />
      <path
         d="m -3168.75,-935.3125 c -15.7414,9.94421 -32.011,22.94866 -47.5625,38.5 -49.9102,49.9104 -70.3785,104.22201 -51.375,127.4375 17.0038,20.77306 18.4731,50.55821 -1.0937,70.125 -10.187,10.18681 -22.997,14.68388 -35.6563,14 -27.6803,0 -50.125,22.4447 -50.125,50.125 0.035,18.843 15.7981,34.125 35.1875,34.125 19.3895,0 33.4077,-15.4013 34.875,-34.125 1.3114,-16.7294 35.2243,-29.75 74.9688,-29.75 10.0635,0 19.664,0.81835 28.4374,2.34375 -10.5037,-2.3706 -22.4684,-3.6875 -35.1874,-3.6875 -40.8199,0 -71.4026,13.82925 -73.125,31.09375 -1.5413,15.4483 -13.122,28.25 -29.125,28.25 -16.0562,0 -27.4963,-12.6477 -27.5313,-28.25 0,-22.9864 18.6387,-37.625 41.625,-37.625 l 0,-0.1875 c 15.0862,-0.42191 30.1861,-6.43594 41.8437,-18.09375 23.7079,-23.70744 22.0057,-59.6564 0.9063,-84.34375 -18.8516,-22.05852 6.6858,-79.46696 55.2813,-128.0625 12.3047,-12.30451 25.0638,-23.0129 37.6562,-31.875 z"
         id="path4150"
         style="fill:#4d4d4d;fill-opacity:1;stroke:none;display:inline" />
    </g>
  </g>
</svg>
